<?xml version="1.0" encoding="UTF-8"?>
<svg version="1.1" xmlns="http://www.w3.org/2000/svg" class="h-5 w-5 text-white">
<path d="M0 0 C168.63 0 337.26 0 511 0 C511 168.63 511 337.26 511 511 C342.37 511 173.74 511 0 511 C0 342.37 0 173.74 0 0 Z " fill="#FEFEFE" transform="translate(0,0)"/>
<path d="M0 0 C0.98502251 -0.00143509 0.98502251 -0.00143509 1.98994446 -0.00289917 C3.3981638 -0.0035828 4.80638624 -0.00171592 6.21459961 0.00244141 C8.28181981 0.00760887 10.34880399 0.00259992 12.41601562 -0.00390625 C20.26024771 -0.00752686 28.06499763 0.22571382 35.8984375 0.6328125 C48.45264597 1.26747629 60.99856123 1.28402313 73.56640625 1.26318359 C77.46227809 1.25776171 81.3580376 1.2631973 85.25390625 1.26953125 C87.76432317 1.26887134 90.27474002 1.26759199 92.78515625 1.265625 C93.9332074 1.26764923 95.08125854 1.26967346 96.26409912 1.27175903 C102.7989309 1.25285129 109.18887626 0.91953279 115.67578125 0.1328125 C126.80341041 -1.10229608 132.99374395 0.70589931 141.98046875 6.77734375 C145.4336307 9.08763456 148.95458434 10.51498715 152.86328125 11.9453125 C161.00441329 15.25149621 165.96775257 20.67328301 171.67578125 27.1328125 C172.4234375 27.96425781 173.17109375 28.79570312 173.94140625 29.65234375 C175.54407394 31.46023109 177.11488955 33.28904075 178.67578125 35.1328125 C179.00578125 35.4628125 179.33578125 35.7928125 179.67578125 36.1328125 C179.5170143 40.89582095 179.43335076 43.18585062 176.42578125 46.9453125 C172.66160104 49.93954676 169.51972054 51.85003117 164.93359375 53.38671875 C160.53338384 55.0231233 157.39947177 57.41316033 153.86328125 60.4453125 C148.2215924 65.11735846 142.47192402 69.5702755 136.55078125 73.8828125 C128.39737607 79.83213993 120.35478051 85.91567235 112.35302734 92.06738281 C111.50949707 92.71416992 110.6659668 93.36095703 109.796875 94.02734375 C109.04849365 94.60331299 108.3001123 95.17928223 107.52905273 95.77270508 C105.67578125 97.1328125 105.67578125 97.1328125 103.67578125 98.1328125 C104.12175414 101.14312949 104.74187543 102.2045719 106.86328125 104.5078125 C107.46140625 105.3740625 108.05953125 106.2403125 108.67578125 107.1328125 C107.02086973 113.98747559 103.04776366 120.01328886 99.67578125 126.1328125 C94.39578125 126.1328125 89.11578125 126.1328125 83.67578125 126.1328125 C84.00578125 124.1528125 84.33578125 122.1728125 84.67578125 120.1328125 C84.67578125 119.4728125 84.67578125 118.8128125 84.67578125 118.1328125 C83.66274363 119.85437346 82.66583277 121.58543056 81.67578125 123.3203125 C80.84046875 124.76470703 80.84046875 124.76470703 79.98828125 126.23828125 C78.22563153 130.0773793 78.22563153 130.0773793 78.67578125 134.1328125 C80.83985588 135.92233575 82.7970751 137.32366534 85.17578125 138.7578125 C87.42996574 140.14500296 89.53517279 141.56264091 91.67578125 143.1328125 C91.67578125 144.1228125 91.67578125 145.1128125 91.67578125 146.1328125 C89.69578125 147.1228125 89.69578125 147.1228125 87.67578125 148.1328125 C88.33578125 149.7828125 88.99578125 151.4328125 89.67578125 153.1328125 C89.34578125 153.4628125 89.01578125 153.7928125 88.67578125 154.1328125 C81.79054961 153.55331369 75.14771515 151.58017398 68.48828125 149.8203125 C66.72581055 149.37655273 66.72581055 149.37655273 64.92773438 148.92382812 C63.79916016 148.62541016 62.67058594 148.32699219 61.5078125 148.01953125 C60.48405518 147.75358154 59.46029785 147.48763184 58.40551758 147.21362305 C53.73287944 145.36354085 51.42819745 141.9818336 48.86328125 137.8203125 C46.38735182 134.00975108 43.70482572 130.94592261 40.40234375 127.83984375 C38.09281582 125.5564417 36.16512199 123.02230965 34.23046875 120.41796875 C32.05213008 118.61728176 30.41501468 118.9068488 27.67578125 119.1328125 C28.04832031 119.90367187 28.42085937 120.67453125 28.8046875 121.46875 C29.27777344 122.47164063 29.75085938 123.47453125 30.23828125 124.5078125 C30.71394531 125.50554687 31.18960938 126.50328125 31.6796875 127.53125 C32.00839844 128.38976562 32.33710938 129.24828125 32.67578125 130.1328125 C32.34578125 130.7928125 32.01578125 131.4528125 31.67578125 132.1328125 C19.04334882 131.22774493 19.04334882 131.22774493 14.48828125 130.5703125 C9.8628264 130.0395226 5.3250177 130.04706839 0.67578125 130.1328125 C0.34578125 130.7928125 0.01578125 131.4528125 -0.32421875 132.1328125 C0.68640625 132.1740625 1.69703125 132.2153125 2.73828125 132.2578125 C8.86315331 133.1363295 12.70112982 137.92843246 16.67578125 142.3203125 C17.33578125 143.2484375 17.99578125 144.1765625 18.67578125 145.1328125 C18.34578125 146.1228125 18.01578125 147.1128125 17.67578125 148.1328125 C14.04578125 147.8028125 10.41578125 147.4728125 6.67578125 147.1328125 C7.00578125 148.7828125 7.33578125 150.4328125 7.67578125 152.1328125 C2.13815895 152.53280127 -2.25301055 151.17600578 -7.38671875 149.3203125 C-8.23089355 149.01625488 -9.07506836 148.71219727 -9.94482422 148.39892578 C-15.54490727 146.22141206 -19.62344533 143.64097392 -23.94921875 139.5078125 C-32.38461377 131.57925954 -42.35354806 130.10404633 -53.44140625 127.9296875 C-74.17983859 123.67862214 -74.17983859 123.67862214 -82.11962891 115.00756836 C-84.6693358 112.41521743 -86.33893946 111.22282039 -90.02612305 110.88598633 C-99.34540244 111.41020939 -108.54364297 113.68484778 -117.63671875 115.6953125 C-120.610011 116.35196114 -123.58543029 116.99744226 -126.5625 117.63671875 C-127.55495476 117.86168785 -127.55495476 117.86168785 -128.56745911 118.09120178 C-135.38505618 119.55396371 -141.51080588 119.64256996 -148.265625 117.7421875 C-149.33756104 117.44650879 -150.40949707 117.15083008 -151.51391602 116.84619141 C-152.62694092 116.52827637 -153.73996582 116.21036133 -154.88671875 115.8828125 C-157.19916099 115.23937573 -159.51166076 114.59614564 -161.82421875 113.953125 C-162.93667969 113.64020508 -164.04914063 113.32728516 -165.1953125 113.00488281 C-170.39886349 111.55457974 -175.62986948 110.21234043 -180.859375 108.859375 C-183.32421875 108.1328125 -183.32421875 108.1328125 -184.32421875 107.1328125 C-184.66331637 100.80963926 -184.70204 94.33300814 -183.32421875 88.1328125 C-180.80286101 86.87213363 -178.82759803 86.85632332 -176.0078125 86.66796875 C-174.30189941 86.55279907 -174.30189941 86.55279907 -172.56152344 86.43530273 C-171.30758789 86.35610596 -170.05365234 86.27690918 -168.76171875 86.1953125 C-167.46008789 86.11031494 -166.15845703 86.02531738 -164.81738281 85.93774414 C-151.30811832 85.07317755 -137.7862808 84.4395107 -124.26342773 83.83032227 C-116.25356455 83.46411048 -108.29356798 83.05929034 -100.32421875 82.1328125 C-100.05053467 81.39973877 -99.77685059 80.66666504 -99.49487305 79.91137695 C-98.38682543 77.28141034 -97.14105154 75.06715978 -95.59375 72.67578125 C-95.04533447 71.82218018 -94.49691895 70.9685791 -93.93188477 70.08911133 C-93.33947998 69.17540771 -92.7470752 68.2617041 -92.13671875 67.3203125 C-90.87016894 65.34955237 -89.60457836 63.37817552 -88.33984375 61.40625 C-87.68177734 60.38112305 -87.02371094 59.35599609 -86.34570312 58.29980469 C-82.36929865 52.07010434 -78.4708497 45.79158891 -74.5637207 39.51831055 C-73.39886888 37.64942917 -72.22945196 35.78338434 -71.05517578 33.92041016 C-69.86599917 32.00531587 -68.70693682 30.07129421 -67.57373047 28.12255859 C-61.94263998 18.65900217 -56.40034387 16.14466916 -46.01171875 13.2578125 C-44.23629205 12.74586652 -42.46156512 12.23148833 -40.6875 11.71484375 C-39.79498535 11.45525879 -38.9024707 11.19567383 -37.98291016 10.92822266 C-33.85669228 9.69376739 -29.77780627 8.32778914 -25.69921875 6.9453125 C-20.15583221 5.06722855 -14.61157654 3.26514419 -8.9765625 1.67578125 C-3.88804736 0.00366871 -3.88804736 0.00366871 0 0 Z " fill="#141414" transform="translate(258.32421875,164.8671875)"/>
<path d="M0 0 C0.66 0 1.32 0 2 0 C2 -0.33 2 -0.66 2 -1 C13.90107122 -1.04864198 25.79283082 -0.96181831 37.69091797 -0.68261719 C39.41837034 -0.64372396 41.14592073 -0.60899248 42.87353516 -0.578125 C45.42118061 -0.53245292 47.96829535 -0.47463221 50.515625 -0.4140625 C51.66408905 -0.39673569 51.66408905 -0.39673569 52.83575439 -0.37905884 C57.27100734 -0.25704269 60.83914202 0.52437332 65 2 C68.27140826 1.70642396 68.27140826 1.70642396 71 1 C74.38763225 7.66358432 77.68736403 14.36367083 80.875 21.125 C81.1851001 21.77605713 81.4952002 22.42711426 81.81469727 23.09790039 C84 27.76518399 84 27.76518399 84 30 C81.69 29.67 79.38 29.34 77 29 C79.31 29.99 81.62 30.98 84 32 C83.484897 37.31455478 81.63835295 40.90623121 78.9375 45.375 C78.37192383 46.33599609 78.37192383 46.33599609 77.79492188 47.31640625 C76.87160383 48.88254066 75.93694607 50.44198034 75 52 C70.01407125 47.82222235 65.33295716 43.46872723 60.75390625 38.8515625 C60.09792953 38.19417084 59.44195282 37.53677917 58.76609802 36.85946655 C56.69584732 34.78367138 54.62912349 32.70440573 52.5625 30.625 C51.14932138 29.2067992 49.73591206 27.78882824 48.32226562 26.37109375 C44.87883935 22.91671223 41.43856901 19.4592163 38 16 C38.99 15.67 39.98 15.34 41 15 C40.01 14.67 39.02 14.34 38 14 C38 13.34 38 12.68 38 12 C40.97 10.68 43.94 9.36 47 8 C45.91332031 8.45052734 45.91332031 8.45052734 44.8046875 8.91015625 C35.26472044 12.6625433 35.26472044 12.6625433 30 11 C29.67 11 29.34 11 29 11 C29 11.33 29 11.66 29 12 C25.37 12.33 21.74 12.66 18 13 C19.6396875 13.2165625 19.6396875 13.2165625 21.3125 13.4375 C24.76717608 13.96448449 27.69753934 14.89917978 31 16 C30.37339478 16.66418945 30.37339478 16.66418945 29.73413086 17.34179688 C27.80044849 19.39314917 25.86896851 21.44656317 23.9375 23.5 C23.28072266 24.19609375 22.62394531 24.8921875 21.94726562 25.609375 C17.52320337 30.31675158 13.23407031 35.12171686 9 40 C3.52054078 46.17038928 -2.06367878 52.24120924 -7.67163086 58.29443359 C-11.52530856 62.46316832 -15.30302805 66.69120523 -19 71 C-22.38926226 69.87024591 -22.83799548 69.21323056 -24.8203125 66.38671875 C-25.35188965 65.63849854 -25.8834668 64.89027832 -26.43115234 64.11938477 C-26.99012207 63.31686279 -27.5490918 62.51434082 -28.125 61.6875 C-29.28521842 60.04339515 -30.44668241 58.40016858 -31.609375 56.7578125 C-32.18107422 55.94860352 -32.75277344 55.13939453 -33.34179688 54.30566406 C-34.81985437 52.25048518 -36.3338239 50.23800213 -37.890625 48.2421875 C-38.52653564 47.42488159 -38.52653564 47.42488159 -39.17529297 46.59106445 C-40.30576756 45.15071008 -41.44555854 43.71768176 -42.5859375 42.28515625 C-43.05257812 41.53105469 -43.51921875 40.77695313 -44 40 C-43.67 39.01 -43.34 38.02 -43 37 C-40.52573726 36.07598873 -38.17074174 35.35134916 -35.625 34.6875 C-34.08667575 34.26245204 -32.54893669 33.83528181 -31.01171875 33.40625 C-30.20009277 33.18195313 -29.3884668 32.95765625 -28.55224609 32.7265625 C-24.15138834 31.47374514 -19.79617525 30.07878649 -15.4375 28.6875 C-14.59848145 28.42090576 -13.75946289 28.15431152 -12.89501953 27.87963867 C-10.92951352 27.25466116 -8.96467802 26.62757553 -7 26 C-16.48916589 28.19776322 -25.71873583 30.74474259 -34.88232422 34.06884766 C-39.05685904 35.53848806 -42.50198132 36.41520172 -47 36 C-47.495 35.505 -47.495 35.505 -48 35 C-41.88845877 43.63219994 -35.67329333 52.18159349 -29.38623047 60.68676758 C-25.38912448 66.09971722 -21.43061388 71.53861034 -17.5 77 C-12.84616863 83.46245992 -8.15790038 89.89848317 -3.4375 96.3125 C-2.85355469 97.10720703 -2.26960938 97.90191406 -1.66796875 98.72070312 C0.63397968 101.84285514 2.9360526 104.92232731 5.40234375 107.91796875 C7 110 7 110 7 112 C-3.02887177 112.9767249 -12.93395765 113.10849626 -23 113 C-23.33 112.34 -23.66 111.68 -24 111 C-24.495 112.485 -24.495 112.485 -25 114 C-47.275 114.99 -47.275 114.99 -70 116 C-70 91.86923049 -70 91.86923049 -68.9765625 83.703125 C-68.87032562 82.77433533 -68.76408875 81.84554565 -68.65463257 80.88861084 C-68.32254389 78.00763924 -67.97428744 75.12893075 -67.625 72.25 C-67.39994446 70.32174233 -67.17598405 68.39335652 -66.953125 66.46484375 C-66.41612859 61.83896811 -65.864903 57.21493173 -65.30914307 52.59127808 C-65.0102936 50.08628231 -64.71822514 47.58060938 -64.42919922 45.07446289 C-64.29606827 43.92388397 -64.29606827 43.92388397 -64.1602478 42.75006104 C-63.92450671 40.70885987 -63.68975105 38.66754495 -63.45507812 36.6262207 C-62.79784086 31.38912569 -61.94054086 26.19298625 -61 21 C-58.2160817 22.39195915 -58.02101003 24.15575779 -57 27 C-56.11443256 25.31026274 -56.11443256 25.31026274 -56 23 C-57.85250004 19.76238866 -57.85250004 19.76238866 -60 17 C-51.82635328 15.92285276 -43.67285025 15.67665282 -35.4375 15.4375 C-30.673125 15.293125 -25.90875 15.14875 -21 15 C-31.23 15 -41.46 15 -52 15 C-49.87529522 12.87529522 -48.7307115 12.40767182 -45.93676758 11.47192383 C-45.09862015 11.18855667 -44.26047272 10.90518951 -43.39692688 10.61323547 C-42.48863632 10.31418808 -41.58034576 10.01514069 -40.64453125 9.70703125 C-39.70953293 9.39674484 -38.77453461 9.08645844 -37.811203 8.76676941 C-35.82925223 8.11209807 -33.84616841 7.4608486 -31.86206055 6.81274414 C-28.83705811 5.82055496 -25.82004356 4.80632105 -22.80273438 3.79101562 C-20.87545188 3.15747785 -18.94773059 2.52527306 -17.01953125 1.89453125 C-16.12136185 1.58941116 -15.22319244 1.28429108 -14.29780579 0.96992493 C-9.00926777 -0.72649509 -5.42942029 -1.2328139 0 0 Z " fill="#E9E9E9" transform="translate(260,169)"/>
<path d="M0 0 C3.05531463 1.36921094 5.20111699 2.93341573 7.59106445 5.26879883 C8.27469559 5.93321487 8.95832672 6.59763092 9.66267395 7.28218079 C10.38887436 7.99988144 11.11507477 8.71758209 11.86328125 9.45703125 C12.99034737 10.56699715 12.99034737 10.56699715 14.1401825 11.6993866 C15.72394923 13.2642829 17.30484326 14.83209115 18.88305664 16.40258789 C21.30712721 18.8071704 23.75166698 21.18960789 26.19726562 23.57226562 C27.73308402 25.09503086 29.26763375 26.61907694 30.80078125 28.14453125 C31.53710281 28.85615921 32.27342438 29.56778717 33.03205872 30.30097961 C33.69992905 30.97485214 34.36779938 31.64872467 35.0559082 32.34301758 C35.65007034 32.92988846 36.24423248 33.51675934 36.85639954 34.12141418 C38 36 38 36 37.81291199 38.52153015 C36.74809964 41.76801359 34.98846345 44.24180876 33 47 C33.99 47.33 34.98 47.66 36 48 C34.02 54.27 32.04 60.54 30 67 C31.92224546 63.15550908 33.3015936 59.3202441 34.625 55.25 C34.85445313 54.55261719 35.08390625 53.85523438 35.3203125 53.13671875 C35.88294552 51.42537664 36.44184608 49.7128082 37 48 C37.33 48 37.66 48 38 48 C38.12122396 64.09294718 37.99961133 80.16293132 37.5625 96.25 C37.54285187 97.03146393 37.52320374 97.81292786 37.50296021 98.61807251 C37.44618349 100.83411587 37.38254373 103.04984355 37.31640625 105.265625 C37.27974854 106.54211914 37.24309082 107.81861328 37.20532227 109.13378906 C37 112 37 112 36 113 C29.38270607 114.35353739 22.72724312 114.0910454 16 114 C15.505 113.01 15.505 113.01 15 112 C14.01 112 13.02 112 12 112 C10.48193359 110.77832031 10.48193359 110.77832031 8.8984375 109.078125 C8.32609375 108.46453125 7.75375 107.8509375 7.1640625 107.21875 C6.27847656 106.24421875 6.27847656 106.24421875 5.375 105.25 C4.776875 104.61578125 4.17875 103.9815625 3.5625 103.328125 C-1.75993416 97.54810601 -1.75993416 97.54810601 -2 94 C-0.84423828 91.83349609 -0.84423828 91.83349609 0.9296875 89.5234375 C1.56003906 88.688125 2.19039063 87.8528125 2.83984375 86.9921875 C3.51144531 86.12851562 4.18304688 85.26484375 4.875 84.375 C6.18583937 82.65436424 7.49578029 80.93304353 8.8046875 79.2109375 C9.39233887 78.45087402 9.97999023 77.69081055 10.58544922 76.90771484 C12.04495553 75.05467401 12.04495553 75.05467401 13 73 C12.37955811 73.81005493 12.37955811 73.81005493 11.74658203 74.63647461 C9.87668517 77.0732217 8.00093193 79.50539647 6.125 81.9375 C5.47402344 82.78763672 4.82304687 83.63777344 4.15234375 84.51367188 C3.52714844 85.32255859 2.90195312 86.13144531 2.2578125 86.96484375 C1.6817627 87.7137085 1.10571289 88.46257324 0.51220703 89.23413086 C-1 91 -1 91 -3 92 C-3.04941043 80.97902265 -2.92971743 69.98168282 -2.59765625 58.96484375 C-2.55510402 57.50615242 -2.51266163 56.04745788 -2.47032166 54.58876038 C-2.38206678 51.56961826 -2.29191292 48.55054038 -2.20043945 45.53149414 C-2.08405345 41.68224509 -1.97349748 37.83285246 -1.86443424 33.98338985 C-1.77872658 30.98659698 -1.68948407 27.98991695 -1.59924126 24.99325752 C-1.55699441 23.5736597 -1.51592706 22.15402622 -1.4761219 20.73435783 C-1.27918155 13.76475324 -1.04751109 6.89844428 0 0 Z " fill="#FAFAFA" transform="translate(295,185)"/>
<path d="M0 0 C0.680625 -0.01611328 1.36125 -0.03222656 2.0625 -0.04882812 C4.0390625 -0.05078125 4.0390625 -0.05078125 7.375 0.3125 C8.035 1.3025 8.695 2.2925 9.375 3.3125 C9.705 2.6525 10.035 1.9925 10.375 1.3125 C12.5021313 2.60076262 14.62671612 3.89292396 16.75 5.1875 C17.35328125 5.55230469 17.9565625 5.91710937 18.578125 6.29296875 C21.08011595 7.82196322 23.29371354 9.23121354 25.375 11.3125 C26.385625 11.4775 27.39625 11.6425 28.4375 11.8125 C29.406875 11.9775 30.37625 12.1425 31.375 12.3125 C31.87 13.3025 31.87 13.3025 32.375 14.3125 C33.2825 14.580625 34.19 14.84875 35.125 15.125 C38.89664309 16.50310036 40.72463088 18.35032275 43.375 21.3125 C42.11925659 25.18437551 41.03492073 27.38087517 37.375 29.3125 C34.125 29.5 34.125 29.5 31.375 29.3125 C32.2 29.704375 33.025 30.09625 33.875 30.5 C34.7 31.098125 35.525 31.69625 36.375 32.3125 C36.75 34.9375 36.75 34.9375 36.375 37.3125 C33.70654649 39.98095351 26.10815792 38.80768268 22.5 38.9375 C21.28957031 38.9890625 20.07914062 39.040625 18.83203125 39.09375 C17.67316406 39.13757813 16.51429688 39.18140625 15.3203125 39.2265625 C14.25312988 39.2673291 13.18594727 39.3080957 12.08642578 39.35009766 C9.375 39.3125 9.375 39.3125 6.375 38.3125 C5.385 36.9925 4.395 35.6725 3.375 34.3125 C6.345 39.9225 9.315 45.5325 12.375 51.3125 C11.715 49.86875 11.055 48.425 10.375 46.9375 C8.375 42.5625 8.375 42.5625 8.375 40.3125 C28.90576643 38.86993674 28.90576643 38.86993674 35.375 39.3125 C35.705 39.6425 36.035 39.9725 36.375 40.3125 C36.705 40.3125 37.035 40.3125 37.375 40.3125 C38.63680925 43.49779895 39.08599752 45.93526178 38.375 49.3125 C36.48751165 51.4713148 34.81542596 53.15003578 32.625 54.9375 C32.07489258 55.38722168 31.52478516 55.83694336 30.95800781 56.30029297 C29.328125 57.5390625 29.328125 57.5390625 26.375 59.3125 C25.385 58.9825 24.395 58.6525 23.375 58.3125 C22.055 59.6325 20.735 60.9525 19.375 62.3125 C18.385 61.3225 17.395 60.3325 16.375 59.3125 C16.705 60.3025 17.035 61.2925 17.375 62.3125 C12.99808567 61.62493875 9.074172 60.114619 5 58.4375 C4.36578125 58.18097656 3.7315625 57.92445313 3.078125 57.66015625 C1.17326851 56.88655127 -0.72624279 56.10094195 -2.625 55.3125 C-3.83414062 54.81492188 -5.04328125 54.31734375 -6.2890625 53.8046875 C-12.22810631 51.14811287 -16.80106251 47.65548528 -21.6875 43.4375 C-22.29916016 42.92058594 -22.91082031 42.40367187 -23.54101562 41.87109375 C-26.97300466 38.92514857 -29.91926218 35.96963192 -32.625 32.3125 C-31.19862559 29.66010147 -29.75975944 27.015968 -28.3125 24.375 C-27.90837891 23.62025391 -27.50425781 22.86550781 -27.08789062 22.08789062 C-26.69150391 21.36923828 -26.29511719 20.65058594 -25.88671875 19.91015625 C-25.52537842 19.24508057 -25.16403809 18.58000488 -24.79174805 17.89477539 C-23.625 16.3125 -23.625 16.3125 -20.625 15.3125 C-19.92348848 13.9971659 -19.25974075 12.66132408 -18.625 11.3125 C-16.75640201 8.78989272 -15.72059257 8.33838965 -12.625 7.5 C-9.625 7.3125 -9.625 7.3125 -6.625 9.3125 C-5.305 9.3125 -3.985 9.3125 -2.625 9.3125 C-7.08 5.8475 -7.08 5.8475 -11.625 2.3125 C-7.45086468 0.22543234 -4.51519775 -0.02162451 0 0 Z " fill="#EBEBEB" transform="translate(379.625,167.6875)"/>
<path d="M0 0 C1.30211046 3.90633137 0.47812346 6.19538173 -0.4375 10.1875 C-0.86869141 12.09595703 -0.86869141 12.09595703 -1.30859375 14.04296875 C-1.53675781 15.01878906 -1.76492188 15.99460938 -2 17 C-0.515 11.555 -0.515 11.555 1 6 C1.33 6 1.66 6 2 6 C2.4707036 35.02430835 1.14514488 64.00438333 0 93 C-6.6 93 -13.2 93 -20 93 C-20 87 -20 87 -19 82 C-19.99 85.63 -20.98 89.26 -22 93 C-22.66 93 -23.32 93 -24 93 C-25.85544595 90.57718628 -27.59622887 88.14442789 -29.3125 85.625 C-32.70357193 80.70035924 -36.11226514 75.8093555 -39.71875 71.0390625 C-40.31905029 70.23774902 -40.91935059 69.43643555 -41.5378418 68.61083984 C-42.70494961 67.0582284 -43.88324752 65.51395489 -45.07348633 63.97900391 C-48.91311394 58.82478796 -48.91311394 58.82478796 -49.26953125 55.44140625 C-47.27220358 51.60039149 -44.39462279 48.75639134 -41.375 45.6875 C-40.08380325 44.34194389 -38.79342806 42.99559889 -37.50390625 41.6484375 C-36.88918457 41.01131836 -36.27446289 40.37419922 -35.64111328 39.71777344 C-33.80625274 37.79720236 -32.04280073 35.82764139 -30.3125 33.8125 C-27.44315202 30.478245 -24.47993482 27.23520111 -21.5 24 C-17.86763543 20.05438452 -14.28296367 16.07542525 -10.76953125 12.0234375 C-7.22749258 7.97315928 -3.60747906 3.99194962 0 0 Z " fill="#F1F1F1" transform="translate(291,186)"/>
<path d="M0 0 C2.90840497 1.45420249 3.07325334 3.31409465 4.20703125 6.328125 C4.62919922 7.43929687 5.05136719 8.55046875 5.48632812 9.6953125 C5.92396484 10.86835938 6.36160156 12.04140625 6.8125 13.25 C7.23853516 14.37664062 7.66457031 15.50328125 8.10351562 16.6640625 C8.97197299 18.96067896 9.83797931 21.25822361 10.70166016 23.55664062 C12.36871323 27.97787353 14.064367 32.38773227 15.765625 36.79589844 C16.57083167 38.8859958 17.37181577 40.97772626 18.16796875 43.07128906 C20.55291531 49.32981249 23.02163624 55.54875724 25.55078125 61.75 C26.17262306 63.27990849 26.79436716 64.80985669 27.41601562 66.33984375 C28.37075785 68.68948389 29.32809595 71.03790084 30.29321289 73.38330078 C31.24125341 75.6898589 32.17820793 78.00066012 33.11328125 80.3125 C33.40382889 81.01149414 33.69437653 81.71048828 33.99372864 82.43066406 C35.56099113 86.33700435 36 88.6646632 36 93 C13.725 93.99 13.725 93.99 -9 95 C-9 70.86923049 -9 70.86923049 -7.9765625 62.703125 C-7.87032562 61.77433533 -7.76408875 60.84554565 -7.65463257 59.88861084 C-7.32254389 57.00763924 -6.97428744 54.12893075 -6.625 51.25 C-6.39994446 49.32174233 -6.17598405 47.39335652 -5.953125 45.46484375 C-5.41612859 40.83896811 -4.864903 36.21493173 -4.30914307 31.59127808 C-4.0102936 29.08628231 -3.71822514 26.58060938 -3.42919922 24.07446289 C-3.29606827 22.92388397 -3.29606827 22.92388397 -3.1602478 21.75006104 C-2.92450671 19.70885987 -2.68975105 17.66754495 -2.45507812 15.6262207 C-1.79784086 10.38912569 -0.94054086 5.19298625 0 0 Z " fill="#FAFAFA" transform="translate(199,190)"/>
<path d="M0 0 C4.03402354 1.63882206 6.89127354 4.48651832 10 7.4375 C13.95795215 11.22670979 13.95795215 11.22670979 18.3125 14.53515625 C20.63887348 16.55457767 20.69109632 17.96638654 21 21 C20.28735352 23.49536133 20.28735352 23.49536133 19.12890625 26.08203125 C18.71962891 27.01337891 18.31035156 27.94472656 17.88867188 28.90429688 C17.45103516 29.86400391 17.01339844 30.82371094 16.5625 31.8125 C16.12873047 32.79154297 15.69496094 33.77058594 15.24804688 34.77929688 C14.17714686 37.19176395 13.09422129 39.59804308 12 42 C12.474375 41.175 12.94875 40.35 13.4375 39.5 C13.953125 38.675 14.46875 37.85 15 37 C15.33 37 15.66 37 16 37 C16 39.31 16 41.62 16 44 C16.16604736 43.30849854 16.33209473 42.61699707 16.50317383 41.90454102 C17.25963604 38.78711906 18.03576948 35.67493081 18.8125 32.5625 C19.07353516 31.47388672 19.33457031 30.38527344 19.60351562 29.26367188 C19.86455078 28.22919922 20.12558594 27.19472656 20.39453125 26.12890625 C20.63018799 25.17056885 20.86584473 24.21223145 21.10864258 23.22485352 C21.40279053 22.49065186 21.69693848 21.7564502 22 21 C25.85768778 19.71410407 27.04706974 20.56250076 30.76171875 22.08984375 C32.43911133 22.77143555 32.43911133 22.77143555 34.15039062 23.46679688 C35.31763672 23.95212891 36.48488281 24.43746094 37.6875 24.9375 C38.86634766 25.41896484 40.04519531 25.90042969 41.25976562 26.39648438 C44.17674608 27.58925776 47.0898314 28.79072299 50 30 C45.75337519 34.56404929 40.98060669 38.10590376 35.9375 41.75 C34.24189206 42.98657416 32.54657974 44.22355377 30.8515625 45.4609375 C29.6145459 46.36150879 29.6145459 46.36150879 28.35253906 47.28027344 C25.15287811 49.61925349 21.9786373 51.99092273 18.8125 54.375 C17.87019531 55.08398438 16.92789062 55.79296875 15.95703125 56.5234375 C14.98830078 57.25433594 14.98830078 57.25433594 14 58 C13 56 13 56 13 53 C12.62875 54.216875 12.2575 55.43375 11.875 56.6875 C10.17487384 61.26726568 8.00847088 63.27082834 4 66 C3.34 66 2.68 66 2 66 C2 65.01 2 64.02 2 63 C1.48050781 64.03898437 0.96101563 65.07796875 0.42578125 66.1484375 C-3.3828125 73.765625 -7.19140625 81.3828125 -11 89 C-11.33 89 -11.66 89 -12 89 C-12.108787 72.67023493 -12.08572855 56.34560402 -11.68161011 40.01968384 C-11.64392127 38.46700539 -11.6095087 36.91424389 -11.57839966 35.36141968 C-11.53342071 33.18197473 -11.47565811 31.00324945 -11.4140625 28.82421875 C-11.3826416 27.57729248 -11.3512207 26.33036621 -11.31884766 25.0456543 C-11 22 -11 22 -9 19 C-8.79890625 17.87851563 -8.79890625 17.87851563 -8.59375 16.734375 C-7.82141413 13.17756506 -6.25612299 10.43117361 -4.5 7.25 C-3.8709375 6.10015625 -3.241875 4.9503125 -2.59375 3.765625 C-1 1 -1 1 0 0 Z " fill="#FAFAFA" transform="translate(346,203)"/>
<path d="M0 0 C1.57156655 3.1431331 0.11705576 5.365464 -0.9375 8.625 C-1.31777344 9.81351563 -1.69804687 11.00203125 -2.08984375 12.2265625 C-2.39019531 13.14179688 -2.69054687 14.05703125 -3 15 C-1.68 11.04 -0.36 7.08 1 3 C1.33 3 1.66 3 2 3 C1.42031488 16.99239956 -0.08116088 30.8614723 -1.64013672 44.77441406 C-1.94566551 47.51298013 -2.2435737 50.2521104 -2.53515625 52.9921875 C-3.82329449 65.02055968 -5.39978558 77.00961579 -7 89 C-11.27862875 88.14081444 -13.97964686 85.8868054 -17.25 83.125 C-17.80429688 82.67769531 -18.35859375 82.23039062 -18.9296875 81.76953125 C-20.3491571 80.58430909 -21.68207812 79.29719984 -23 78 C-23 77.01 -23 76.02 -23 75 C-23.99 74.67 -24.98 74.34 -26 74 C-27.58965571 71.78298853 -28.72327486 69.42137527 -30 67 C-29.32591692 68.26691507 -28.66099503 69.53870749 -28 70.8125 C-27.62875 71.52019531 -27.2575 72.22789062 -26.875 72.95703125 C-26 75 -26 75 -26 78 C-34.09946225 79.78441278 -42.20536867 81.44391384 -50.36254883 82.93798828 C-53.99323605 83.60735028 -57.59439212 84.33995628 -61.1875 85.1875 C-64.29637005 85.85004608 -66.84917824 86.20327882 -70 86 C-59.45375096 75.34014685 -48.05594338 65.89041635 -36 57 C-35.67 57.33 -35.34 57.66 -35 58 C-34.73300293 57.11658936 -34.46600586 56.23317871 -34.19091797 55.32299805 C-33.05449571 52.15205843 -31.74461033 49.66642053 -29.9453125 46.83203125 C-29.3361499 45.86531494 -28.7269873 44.89859863 -28.09936523 43.90258789 C-27.44782471 42.88285889 -26.79628418 41.86312988 -26.125 40.8125 C-25.45605713 39.75474365 -24.78711426 38.6969873 -24.09790039 37.60717773 C-22.72850323 35.44285667 -21.35651444 33.28017319 -19.98193359 31.11914062 C-18.16301937 28.2565577 -16.3541983 25.38798805 -14.55078125 22.515625 C-13.51314981 20.86450228 -12.47539682 19.21345592 -11.4375 17.5625 C-10.97424316 16.82555908 -10.51098633 16.08861816 -10.03369141 15.3293457 C-6.77151109 10.16353865 -3.40896626 5.07003016 0 0 Z " fill="#DEDEDE" transform="translate(194,194)"/>
<path d="M0 0 C0.99 0.33 1.98 0.66 3 1 C1.02 7.27 -0.96 13.54 -3 20 C-1.07775454 16.15550908 0.3015936 12.3202441 1.625 8.25 C1.85445313 7.55261719 2.08390625 6.85523438 2.3203125 6.13671875 C2.88294552 4.42537664 3.44184608 2.7128082 4 1 C4.33 1 4.66 1 5 1 C5.12122396 17.09294718 4.99961133 33.16293132 4.5625 49.25 C4.54285187 50.03146393 4.52320374 50.81292786 4.50296021 51.61807251 C4.44618349 53.83411587 4.38254373 56.04984355 4.31640625 58.265625 C4.27974854 59.54211914 4.24309082 60.81861328 4.20532227 62.13378906 C4 65 4 65 3 66 C-3.61729393 67.35353739 -10.27275688 67.0910454 -17 67 C-17.495 66.01 -17.495 66.01 -18 65 C-18.99 65 -19.98 65 -21 65 C-22.51806641 63.77832031 -22.51806641 63.77832031 -24.1015625 62.078125 C-24.67390625 61.46453125 -25.24625 60.8509375 -25.8359375 60.21875 C-26.72152344 59.24421875 -26.72152344 59.24421875 -27.625 58.25 C-28.223125 57.61578125 -28.82125 56.9815625 -29.4375 56.328125 C-34.75118692 50.55760526 -34.75118692 50.55760526 -35 47 C-33.87597656 44.86523438 -33.87597656 44.86523438 -32.140625 42.59375 C-31.51929688 41.76746094 -30.89796875 40.94117188 -30.2578125 40.08984375 C-29.59523438 39.23519531 -28.93265625 38.38054687 -28.25 37.5 C-27.60289062 36.64535156 -26.95578125 35.79070312 -26.2890625 34.91015625 C-25.07890829 33.31404751 -23.86361464 31.72181331 -22.64160156 30.13476562 C-22.09987305 29.43029297 -21.55814453 28.72582031 -21 28 C-20.21447754 27.02836914 -20.21447754 27.02836914 -19.41308594 26.03710938 C-17.89998593 24.01872268 -17.89998593 24.01872268 -17.01171875 21.52441406 C-15.926665 18.81701643 -14.60376073 16.90378734 -12.8125 14.609375 C-12.19632812 13.81789062 -11.58015625 13.02640625 -10.9453125 12.2109375 C-10.30335938 11.39882812 -9.66140625 10.58671875 -9 9.75 C-8.35804688 8.92242187 -7.71609375 8.09484375 -7.0546875 7.2421875 C-2.26844677 1.13422338 -2.26844677 1.13422338 0 0 Z " fill="#E3E3E3" transform="translate(328,232)"/>
<path d="M0 0 C-0.41773682 0.44279297 -0.83547363 0.88558594 -1.26586914 1.34179688 C-3.19955151 3.39314917 -5.13103149 5.44656317 -7.0625 7.5 C-7.71927734 8.19609375 -8.37605469 8.8921875 -9.05273438 9.609375 C-13.47679663 14.31675158 -17.76592969 19.12171686 -22 24 C-27.47945922 30.17038928 -33.06367878 36.24120924 -38.67163086 42.29443359 C-42.52530856 46.46316832 -46.30302805 50.69120523 -50 55 C-53.38926226 53.87024591 -53.83799548 53.21323056 -55.8203125 50.38671875 C-56.35188965 49.63849854 -56.8834668 48.89027832 -57.43115234 48.11938477 C-57.99012207 47.31686279 -58.5490918 46.51434082 -59.125 45.6875 C-60.28521842 44.04339515 -61.44668241 42.40016858 -62.609375 40.7578125 C-63.18107422 39.94860352 -63.75277344 39.13939453 -64.34179688 38.30566406 C-65.81985437 36.25048518 -67.3338239 34.23800213 -68.890625 32.2421875 C-69.31456543 31.69731689 -69.73850586 31.15244629 -70.17529297 30.59106445 C-71.30576756 29.15071008 -72.44555854 27.71768176 -73.5859375 26.28515625 C-74.05257812 25.53105469 -74.51921875 24.77695313 -75 24 C-74.505 22.515 -74.505 22.515 -74 21 C-71.65019347 20.11569781 -69.42138974 19.43849762 -67 18.8125 C-65.44053286 18.38205808 -63.88199124 17.94825384 -62.32421875 17.51171875 C-61.47134277 17.27372559 -60.6184668 17.03573242 -59.73974609 16.79052734 C-54.72953913 15.34488039 -49.77414705 13.72798777 -44.8125 12.125 C-43.75756348 11.78557373 -42.70262695 11.44614746 -41.61572266 11.09643555 C-39.4739413 10.40729681 -37.33233951 9.71759974 -35.19091797 9.02734375 C-30.08837953 7.38453719 -24.98218266 5.75330172 -19.875 4.125 C-18.53465698 3.69598389 -18.53465698 3.69598389 -17.16723633 3.25830078 C-14.78062379 2.49741809 -12.39069125 1.74794333 -10 1 C-9.31969727 0.77795898 -8.63939453 0.55591797 -7.93847656 0.32714844 C-4.69262884 -0.68919384 -3.31703296 -1.10567765 0 0 Z " fill="#FBFBFB" transform="translate(291,185)"/>
<path d="M0 0 C0.680625 -0.01611328 1.36125 -0.03222656 2.0625 -0.04882812 C4.0390625 -0.05078125 4.0390625 -0.05078125 7.375 0.3125 C8.035 1.3025 8.695 2.2925 9.375 3.3125 C9.705 2.6525 10.035 1.9925 10.375 1.3125 C12.5021313 2.60076262 14.62671612 3.89292396 16.75 5.1875 C17.35328125 5.55230469 17.9565625 5.91710937 18.578125 6.29296875 C21.08011595 7.82196322 23.29371354 9.23121354 25.375 11.3125 C26.385625 11.4775 27.39625 11.6425 28.4375 11.8125 C29.406875 11.9775 30.37625 12.1425 31.375 12.3125 C31.87 13.3025 31.87 13.3025 32.375 14.3125 C33.2825 14.580625 34.19 14.84875 35.125 15.125 C38.89664309 16.50310036 40.72463088 18.35032275 43.375 21.3125 C42.11925659 25.18437551 41.03492073 27.38087517 37.375 29.3125 C34.125 29.5 34.125 29.5 31.375 29.3125 C32.2 29.704375 33.025 30.09625 33.875 30.5 C34.7 31.098125 35.525 31.69625 36.375 32.3125 C36.75 34.9375 36.75 34.9375 36.375 37.3125 C33.70654649 39.98095351 26.10815792 38.80768268 22.5 38.9375 C21.28957031 38.9890625 20.07914062 39.040625 18.83203125 39.09375 C17.67316406 39.13757813 16.51429688 39.18140625 15.3203125 39.2265625 C14.25312988 39.2673291 13.18594727 39.3080957 12.08642578 39.35009766 C9.375 39.3125 9.375 39.3125 6.375 38.3125 C5.36148336 36.65401823 4.36379205 34.98584039 3.375 33.3125 C1.19111794 31.01942384 -1.05541964 28.84139605 -3.375 26.6875 C-4.625 25.3125 -4.625 25.3125 -5.625 22.3125 C-8.14768786 21.11385872 -10.5779028 20.08843379 -13.1875 19.125 C-14.25387695 18.71604492 -14.25387695 18.71604492 -15.34179688 18.29882812 C-17.0990267 17.62659927 -18.86154518 16.96822508 -20.625 16.3125 C-19.81796441 12.5010547 -18.7504944 10.76221183 -15.625 8.3125 C-12.5625 7.4375 -12.5625 7.4375 -9.625 7.3125 C-8.635 7.9725 -7.645 8.6325 -6.625 9.3125 C-5.305 9.3125 -3.985 9.3125 -2.625 9.3125 C-5.595 7.0025 -8.565 4.6925 -11.625 2.3125 C-7.45086468 0.22543234 -4.51519775 -0.02162451 0 0 Z " fill="#282828" transform="translate(379.625,167.6875)"/>
<path d="M0 0 C0 0.66 0 1.32 0 2 C-1.46690559 3.3327188 -3.00322501 4.58913869 -4.5625 5.8125 C-9.3866776 9.66934574 -14.09376845 13.62951942 -18.75 17.6875 C-19.36302979 18.22157471 -19.97605957 18.75564941 -20.60766602 19.3059082 C-21.20635498 19.82757568 -21.80504395 20.34924316 -22.421875 20.88671875 C-23.01291016 21.39509277 -23.60394531 21.9034668 -24.21289062 22.42724609 C-25.44506747 23.51162905 -26.65104948 24.62626245 -27.83398438 25.76416016 C-32.32725766 29.97447867 -32.32725766 29.97447867 -35.57421875 30.09765625 C-38.51132126 28.76862919 -41.12419672 27.21890579 -43.8125 25.4375 C-44.78832031 24.79683594 -45.76414062 24.15617187 -46.76953125 23.49609375 C-47.87361328 22.75552734 -47.87361328 22.75552734 -49 22 C-48.4946875 22.34933594 -47.989375 22.69867188 -47.46875 23.05859375 C-46.49421875 23.74115234 -46.49421875 23.74115234 -45.5 24.4375 C-44.52546875 25.11619141 -44.52546875 25.11619141 -43.53125 25.80859375 C-43.0259375 26.20175781 -42.520625 26.59492188 -42 27 C-42 27.33 -42 27.66 -42 28 C-48.53499921 27.24488597 -54.81469073 25.6662788 -61.1875 24.0625 C-62.26708984 23.79759766 -63.34667969 23.53269531 -64.45898438 23.25976562 C-65.49732422 23.00001953 -66.53566406 22.74027344 -67.60546875 22.47265625 C-68.54543701 22.23812744 -69.48540527 22.00359863 -70.45385742 21.76196289 C-73 21 -73 21 -77 19 C-77 14.71 -77 10.42 -77 6 C-73.48517861 6.87870535 -71.80352902 7.58403769 -68.890625 9.50390625 C-68.13652344 9.99697266 -67.38242188 10.49003906 -66.60546875 10.99804688 C-65.43951172 11.77245117 -65.43951172 11.77245117 -64.25 12.5625 C-63.45722656 13.08263672 -62.66445312 13.60277344 -61.84765625 14.13867188 C-59.8950718 15.42079058 -57.94606613 16.70801774 -56 18 C-60.60601778 14.18871256 -65.51995545 11.02101762 -70.55078125 7.8046875 C-71.35902344 7.20914062 -72.16726562 6.61359375 -73 6 C-73 5.34 -73 4.68 -73 4 C-59.46285099 2.90591129 -45.92089973 1.88575535 -32.36791992 1.00872803 C-30.37202897 0.87887302 -28.37643762 0.74443842 -26.38085938 0.60986328 C-17.56731971 0.05143273 -8.8268607 -0.09899283 0 0 Z " fill="#F8F8F8" transform="translate(154,251)"/>
<path d="M0 0 C0.33 0 0.66 0 1 0 C1.4707036 29.02430835 0.14514488 58.00438333 -1 87 C-7.6 87 -14.2 87 -21 87 C-21 81.8745189 -20.5504761 78.68370219 -19.1875 73.875 C-18.81559584 72.53928788 -18.44451111 71.20334735 -18.07421875 69.8671875 C-17.89036621 69.21073242 -17.70651367 68.55427734 -17.51708984 67.87792969 C-16.79716701 65.26336574 -16.14593679 62.63370913 -15.5 60 C-14.42464375 55.65232314 -13.29001077 51.32451998 -12.125 47 C-10.29041817 40.16583259 -8.56859402 33.30723062 -6.86474609 26.43945312 C-5.2448465 19.92974044 -3.54492207 13.4451211 -1.796875 6.96875 C-1.17461428 4.65052379 -0.5713599 2.33114841 0 0 Z " fill="#F8F8F8" transform="translate(292,192)"/>
<path d="M0 0 C0.33 0 0.66 0 1 0 C0.42031488 13.99239956 -1.08116088 27.8614723 -2.64013672 41.77441406 C-2.94566551 44.51298013 -3.2435737 47.2521104 -3.53515625 49.9921875 C-4.82329449 62.02055968 -6.39978558 74.00961579 -8 86 C-12.33843921 85.14459076 -14.98527425 82.77656175 -18.25 79.9375 C-18.80429688 79.46505859 -19.35859375 78.99261719 -19.9296875 78.50585938 C-21.291749 77.34341033 -22.64659956 76.17252145 -24 75 C-22.48982845 66.87822375 -19.78571045 59.2216065 -17.06274414 51.44656372 C-15.69230751 47.5319788 -14.33827292 43.61173625 -12.984375 39.69140625 C-12.72060059 38.92841721 -12.45682617 38.16542816 -12.18505859 37.37931824 C-9.71868696 30.22505849 -7.4145428 23.02643555 -5.1796875 15.796875 C-3.53505019 10.50353903 -1.7810243 5.24878337 0 0 Z " fill="#F5F5F5" transform="translate(195,197)"/>
<path d="M0 0 C9.35518546 2.41349993 18.126276 6.24256466 27 10 C22.75337519 14.56404929 17.98060669 18.10590376 12.9375 21.75 C11.24189206 22.98657416 9.54657974 24.22355377 7.8515625 25.4609375 C7.02688477 26.06131836 6.20220703 26.66169922 5.35253906 27.28027344 C2.15287811 29.61925349 -1.0213627 31.99092273 -4.1875 34.375 C-5.12980469 35.08398438 -6.07210938 35.79296875 -7.04296875 36.5234375 C-8.01169922 37.25433594 -8.01169922 37.25433594 -9 38 C-10 36 -10 36 -10 33 C-10.37125 34.216875 -10.7425 35.43375 -11.125 36.6875 C-12.82512616 41.26726568 -14.99152912 43.27082834 -19 46 C-19.66 46 -20.32 46 -21 46 C-19.14734097 38.21280717 -16.5172123 31.18734688 -13 24 C-12.34 24 -11.68 24 -11 24 C-10.71125 23.030625 -10.4225 22.06125 -10.125 21.0625 C-9 18 -9 18 -7 17 C-7 19.31 -7 21.62 -7 24 C-6.823479 23.30849854 -6.64695801 22.61699707 -6.46508789 21.90454102 C-5.66780317 18.78959866 -4.86522506 15.67604459 -4.0625 12.5625 C-3.78470703 11.47388672 -3.50691406 10.38527344 -3.22070312 9.26367188 C-2.95322266 8.22919922 -2.68574219 7.19472656 -2.41015625 6.12890625 C-2.16402588 5.17056885 -1.91789551 4.21223145 -1.66430664 3.22485352 C-1 1 -1 1 0 0 Z " fill="#F9F9F9" transform="translate(369,223)"/>
<path d="M0 0 C0.33 0 0.66 0 1 0 C1.12122396 16.09294718 0.99961133 32.16293132 0.5625 48.25 C0.54285187 49.03146393 0.52320374 49.81292786 0.50296021 50.61807251 C0.44618349 52.83411587 0.38254373 55.04984355 0.31640625 57.265625 C0.27974854 58.54211914 0.24309082 59.81861328 0.20532227 61.13378906 C0 64 0 64 -1 65 C-7.61729393 66.35353739 -14.27275688 66.0910454 -21 66 C-20.33497319 61.1990018 -19.06798198 56.71935732 -17.55859375 52.12890625 C-17.31498611 51.3773526 -17.07137848 50.62579895 -16.82038879 49.85147095 C-16.03065628 47.42030017 -15.23437349 44.9913386 -14.4375 42.5625 C-13.89344939 40.89432145 -13.34950453 39.2261084 -12.80566406 37.55786133 C-8.6955528 24.98244601 -4.43745373 12.46402446 0 0 Z " fill="#F9F9F9" transform="translate(332,233)"/>
<path d="M0 0 C-1.6232687 0.6708712 -3.24867578 1.33657029 -4.875 2 C-6.23238281 2.556875 -6.23238281 2.556875 -7.6171875 3.125 C-10 4 -10 4 -12 4 C-12 4.66 -12 5.32 -12 6 C-10.35 6.33 -8.7 6.66 -7 7 C-8.32 7.33 -9.64 7.66 -11 8 C0.55 19.55 12.1 31.1 24 43 C26.20132619 40.06489842 27.95504171 37.4339774 29.6875 34.25 C30.12449219 33.45078125 30.56148437 32.6515625 31.01171875 31.828125 C31.33785156 31.22484375 31.66398438 30.6215625 32 30 C32.33 30.66 32.66 31.32 33 32 C32.10333658 34.24310013 31.10853317 36.44754321 30.0625 38.625 C29.49660156 39.81351563 28.93070313 41.00203125 28.34765625 42.2265625 C27.90292969 43.14179688 27.45820313 44.05703125 27 45 C30.3 45 33.6 45 37 45 C37 45.33 37 45.66 37 46 C36.28972656 46.06058594 35.57945312 46.12117188 34.84765625 46.18359375 C33.92855469 46.26738281 33.00945312 46.35117188 32.0625 46.4375 C31.14597656 46.51871094 30.22945312 46.59992188 29.28515625 46.68359375 C27.03840268 46.76044976 27.03840268 46.76044976 26 48 C25.76298761 50.85877909 25.57780818 53.69883297 25.4375 56.5625 C25.37272461 57.77196289 25.37272461 57.77196289 25.30664062 59.00585938 C25.20024738 61.00368805 25.09959112 63.0018207 25 65 C24.67 65 24.34 65 24 65 C24 61.37 24 57.74 24 54 C23.34 54 22.68 54 22 54 C22 53.34 22 52.68 22 52 C21.34 51.67 20.68 51.34 20 51 C20.66 50.01 21.32 49.02 22 48 C21.71865035 44.04425874 20.57712768 42.07978289 17.79711914 39.32714844 C17.12294449 38.65004822 16.44876984 37.972948 15.75416565 37.27532959 C15.02189255 36.56056458 14.28961945 35.84579956 13.53515625 35.109375 C12.78664902 34.36415588 12.03814178 33.61893677 11.26695251 32.85113525 C9.68527962 31.27987576 8.09885449 29.71338759 6.50805664 28.15136719 C4.06647025 25.75389852 1.63852801 23.3432815 -0.78710938 20.9296875 C-2.32474852 19.40547049 -3.86313474 17.88200669 -5.40234375 16.359375 C-6.49771706 15.27508209 -6.49771706 15.27508209 -7.61521912 14.16888428 C-8.29254593 13.5043927 -8.96987274 12.83990112 -9.66772461 12.15527344 C-10.26427353 11.56856873 -10.86082245 10.98186401 -11.47544861 10.37738037 C-12.97024869 8.90330428 -12.97024869 8.90330428 -15 8 C-15.66 31.1 -16.32 54.2 -17 78 C-17.33 78 -17.66 78 -18 78 C-18 58.53 -18 39.06 -18 19 C-18.99 22.3 -19.98 25.6 -21 29 C-22.10224332 24.59102673 -21.51921909 21.5572715 -20.5625 17.25 C-20.34110352 16.20392578 -20.34110352 16.20392578 -20.11523438 15.13671875 C-19.75131967 13.4227979 -19.37670932 11.71115419 -19 10 C-28.83970329 20.42808507 -28.83970329 20.42808507 -38.37890625 31.12890625 C-43.21055656 36.70567854 -48.20292883 42.14356626 -53.19921875 47.57275391 C-54.60355817 49.10165631 -56.00104034 50.63662919 -57.3984375 52.171875 C-59.00221146 53.91531696 -60.62822908 55.63894972 -62.2890625 57.328125 C-62.93617188 58.00359375 -63.58328125 58.6790625 -64.25 59.375 C-64.81203125 59.93960938 -65.3740625 60.50421875 -65.953125 61.0859375 C-67.23456662 63.05348454 -67.23456662 63.05348454 -66.94921875 65.8515625 C-65.7967856 69.67403626 -64.08775814 71.91138474 -61.5625 75 C-60.65397827 76.13229555 -59.74780554 77.26647909 -58.84375 78.40234375 C-58.37582031 78.98741699 -57.90789062 79.57249023 -57.42578125 80.17529297 C-55.0371803 83.23221138 -52.80022316 86.39430888 -50.5625 89.5625 C-48.0809514 93.07225031 -45.60215558 96.57787256 -43 100 C-43.33 100.66 -43.66 101.32 -44 102 C-49.86633515 94.88829761 -55.27386656 87.50312262 -60.59326172 79.98193359 C-69.35193293 67.64196606 -78.32458231 55.45700883 -87.31445312 43.28515625 C-90.00843261 39.6328318 -92.69229016 35.97310654 -95.375 32.3125 C-95.84566895 31.67030518 -96.31633789 31.02811035 -96.80126953 30.36645508 C-97.86770038 28.91110732 -98.93388223 27.45557712 -100 26 C-99.67 25.34 -99.34 24.68 -99 24 C-98.34 25.32 -97.68 26.64 -97 28 C-87.57708066 25.81757999 -78.40152743 23.29423978 -69.29345703 20.01904297 C-64.50197855 18.33868668 -60.06029066 17.47297762 -55 17 C-57.22900493 19.22900493 -58.54455174 19.65594848 -61.515625 20.5859375 C-62.43134277 20.87525146 -63.34706055 21.16456543 -64.29052734 21.46264648 C-65.26715332 21.76372314 -66.2437793 22.0647998 -67.25 22.375 C-68.23822754 22.68445557 -69.22645508 22.99391113 -70.24462891 23.31274414 C-77.79578196 25.66394614 -85.37356139 27.90468154 -93 30 C-91.3010815 33.78563362 -88.92743587 37.0346028 -86.5 40.375 C-85.60668433 41.614521 -84.71345797 42.85410636 -83.8203125 44.09375 C-83.12856934 45.05087891 -83.12856934 45.05087891 -82.42285156 46.02734375 C-80.06143878 49.30123107 -77.71908745 52.58869794 -75.375 55.875 C-74.52873426 57.05995899 -73.68238837 58.24486074 -72.8359375 59.4296875 C-72.23007813 60.27789062 -71.62421875 61.12609375 -71 62 C-66.74416642 60.39517493 -64.1411677 57.17834625 -61.1875 53.875 C-60.65125 53.28460938 -60.115 52.69421875 -59.5625 52.0859375 C-56.29835991 48.48194747 -53.08604048 44.83483114 -49.90625 41.15625 C-47.31714909 38.22759487 -44.65800659 35.36606337 -42 32.5 C-38.18146814 28.38146994 -34.40927644 24.23624901 -30.734375 19.98828125 C-27.20832935 15.94603522 -23.59635722 11.97964245 -20 8 C-21.98 8 -23.96 8 -26 8 C-26 7.67 -26 7.34 -26 7 C-32.6 6.67 -39.2 6.34 -46 6 C-46 5.67 -46 5.34 -46 5 C-38.74 4.34 -31.48 3.68 -24 3 C-24.99 2.01 -24.99 2.01 -26 1 C-20 2 -20 2 -17.3125 2.8125 C-12.83537841 3.06592198 -9.57896275 1.53250992 -5.48828125 -0.1875 C-3 -1 -3 -1 0 0 Z " fill="#1E1E1E" transform="translate(310,177)"/>
<path d="M0 0 C5.72210596 1.86763181 11.37661751 3.85289032 17 6 C17.32610795 12.84826688 16.11185667 18.86089306 14.5 25.5 C14.14228516 27.01980469 14.14228516 27.01980469 13.77734375 28.5703125 C13.19277966 31.04886426 12.60018531 33.52519334 12 36 C7.72939089 34.01181746 4.53974856 31.24960466 1 28.1875 C0.38382812 27.66607422 -0.23234375 27.14464844 -0.8671875 26.60742188 C-4.31435923 23.6447775 -7.28215505 20.6758853 -10 17 C-8.5228313 14.35303306 -7.04337118 11.70739435 -5.5625 9.0625 C-5.14162109 8.30775391 -4.72074219 7.55300781 -4.28710938 6.77539062 C-3.68286133 5.69741211 -3.68286133 5.69741211 -3.06640625 4.59765625 C-2.69459229 3.93258057 -2.32277832 3.26750488 -1.93969727 2.58227539 C-1 1 -1 1 0 0 Z " fill="#F9F9F9" transform="translate(357,183)"/>
<path d="M0 0 C8.60961572 2.31817914 16.86459956 5.51785458 25.17089844 8.72558594 C27.52138107 9.63325659 29.87377937 10.53581123 32.2265625 11.4375 C33.7240698 12.01273074 35.22146968 12.58824121 36.71875 13.1640625 C37.42076538 13.43384918 38.12278076 13.70363586 38.84606934 13.9815979 C43.76411507 15.88205754 43.76411507 15.88205754 46 17 C45.484897 22.31455478 43.63835295 25.90623121 40.9375 30.375 C40.56044922 31.01566406 40.18339844 31.65632813 39.79492188 32.31640625 C38.87160383 33.88254066 37.93694607 35.44198034 37 37 C32.02426582 32.82717654 27.33695213 28.48472573 22.75390625 23.88671875 C22.09792953 23.23169876 21.44195282 22.57667877 20.76609802 21.90180969 C19.39435098 20.53073805 18.0238454 19.15842327 16.65454102 17.78491211 C14.54752743 15.67248899 12.43515974 13.56552392 10.32226562 11.45898438 C8.98665795 10.12271682 7.65136001 8.78613959 6.31640625 7.44921875 C5.68215225 6.81698898 5.04789825 6.18475922 4.39442444 5.53337097 C0 1.11498244 0 1.11498244 0 0 Z " fill="#F9F9F9" transform="translate(298,184)"/>
<path d="M0 0 C-2.74093665 1.8272911 -5.13825324 2.93698178 -8.1875 4.125 C-9.08855469 4.47820312 -9.98960937 4.83140625 -10.91796875 5.1953125 C-11.60503906 5.46085937 -12.29210937 5.72640625 -13 6 C-12.19175781 5.72285156 -11.38351563 5.44570313 -10.55078125 5.16015625 C-9.48214844 4.79792969 -8.41351563 4.43570312 -7.3125 4.0625 C-5.72888672 3.52302734 -5.72888672 3.52302734 -4.11328125 2.97265625 C-1.40949417 2.12793482 1.21386842 1.49106215 4 1 C1.40912535 6.1817493 -2.79747483 10.39873741 -8 13 C-9.37548156 13.08308638 -10.75485796 13.10736016 -12.1328125 13.09765625 C-12.93847656 13.09443359 -13.74414062 13.09121094 -14.57421875 13.08789062 C-15.41597656 13.07951172 -16.25773437 13.07113281 -17.125 13.0625 C-18.39923828 13.05573242 -18.39923828 13.05573242 -19.69921875 13.04882812 C-21.79950909 13.03702874 -23.8997633 13.01909306 -26 13 C-26 12.34 -26 11.68 -26 11 C-27.175625 11.2475 -28.35125 11.495 -29.5625 11.75 C-36.01920507 12.46741167 -41.84968107 10.4278948 -47.96240234 8.59814453 C-51.43526864 7.57867144 -54.93737786 6.67053296 -58.4375 5.75 C-60.625 5.16666667 -62.8125 4.58333333 -65 4 C-65 3.67 -65 3.34 -65 3 C-59.99147689 2.22045222 -55.02350658 1.74134987 -49.9609375 1.46484375 C-49.20533035 1.42177597 -48.44972321 1.37870819 -47.67121887 1.33433533 C-45.23935628 1.19785285 -42.8072405 1.06706216 -40.375 0.9375 C-39.55029205 0.89264465 -38.72558411 0.84778931 -37.87588501 0.80157471 C-25.24175151 0.12100908 -12.65423463 -0.27019718 0 0 Z " fill="#F1F1F1" transform="translate(260,283)"/>
<path d="M0 0 C2.96266844 4.44400266 2.76945894 8.78901077 2 14 C-0.2015974 16.89683868 -1.78594462 18.39297231 -5 20 C-7.26645766 20.17522676 -9.53972854 20.26728256 -11.8125 20.3125 C-13.64748047 20.36857422 -13.64748047 20.36857422 -15.51953125 20.42578125 C-19.5737799 19.92980695 -21.14043139 18.84899719 -24 16 C-25.97949221 12.04101558 -25.55905203 7.30470062 -25 3 C-19.00939843 -5.32027995 -8.28770744 -4.56669593 0 0 Z " fill="#0C0C0C" transform="translate(366,327)"/>
<path d="M0 0 C2.68793606 4.2386684 2.4814995 8.70420453 1.625 13.5625 C-0.5765974 16.45933868 -2.16094462 17.95547231 -5.375 19.5625 C-7.64145766 19.73772676 -9.91472854 19.82978256 -12.1875 19.875 C-14.02248047 19.93107422 -14.02248047 19.93107422 -15.89453125 19.98828125 C-19.9487799 19.49230695 -21.51543139 18.41149719 -24.375 15.5625 C-26.3557506 11.60099881 -25.92821702 6.87013366 -25.375 2.5625 C-23.13064823 -0.64371682 -21.68124059 -1.99062822 -18 -3.25 C-11.1888555 -3.73651032 -5.96139817 -3.60821468 0 0 Z " fill="#0C0C0C" transform="translate(222.375,327.4375)"/>
<path d="M0 0 C0.99 0.66 1.98 1.32 3 2 C3 3.32 3 4.64 3 6 C3.66 6 4.32 6 5 6 C6.00732399 7.93370231 7.00563288 9.87210306 8 11.8125 C8.556875 12.89144531 9.11375 13.97039062 9.6875 15.08203125 C11 18 11 18 11 21 C2.90053775 22.78441278 -5.20536867 24.44391384 -13.36254883 25.93798828 C-16.99323605 26.60735028 -20.59439212 27.33995628 -24.1875 28.1875 C-27.29637005 28.85004608 -29.84917824 29.20327882 -33 29 C-25.52097477 21.44041077 -17.66484298 14.39872643 -9.3046875 7.828125 C-6.1245727 5.30559326 -3.0627306 2.663244 0 0 Z " fill="#F7F7F7" transform="translate(157,251)"/>
<path d="M0 0 C0.495 0.99 0.495 0.99 1 2 C-0.32 2.33 -1.64 2.66 -3 3 C11.85 3 26.7 3 42 3 C42 3.33 42 3.66 42 4 C30.19860671 4.8860471 18.38999339 5.28526304 6.56201172 5.60717773 C0.3092333 5.79170051 -5.81249765 6.06249964 -12 7 C-11.319375 7.680625 -10.63875 8.36125 -9.9375 9.0625 C-8 12 -8 12 -8.25 15.8125 C-8.4975 16.864375 -8.745 17.91625 -9 19 C-11.46278801 16.53721199 -11.99771255 14.29323018 -13 11 C-13.66 13.31 -14.32 15.62 -15 18 C-15.495 17.01 -15.495 17.01 -16 16 C-17.485 15.505 -17.485 15.505 -19 15 C-19.32049316 15.52094238 -19.64098633 16.04188477 -19.97119141 16.57861328 C-26.39486391 27.01054837 -32.86243444 37.41268371 -39.4375 47.75 C-40.00355957 48.64090332 -40.56961914 49.53180664 -41.15283203 50.44970703 C-44.29417314 55.37710112 -47.49771835 60.24478535 -50.83276367 65.04370117 C-52.37423271 67.62721746 -52.84689428 70.01443853 -53 73 C-53.99 72.67 -54.98 72.34 -56 72 C-56.66386719 72.60328125 -57.32773438 73.2065625 -58.01171875 73.828125 C-58.89472656 74.62734375 -59.77773437 75.4265625 -60.6875 76.25 C-61.99267578 77.43335938 -61.99267578 77.43335938 -63.32421875 78.640625 C-65.82420863 80.84499564 -68.37945728 82.94133941 -71 85 C-71.66 84.67 -72.32 84.34 -73 84 C-71.04709472 82.16056628 -69.08818082 80.32840869 -67.125 78.5 C-66.56941406 77.97535156 -66.01382813 77.45070313 -65.44140625 76.91015625 C-61.2265625 73 -61.2265625 73 -59 73 C-59 72.34 -59 71.68 -59 71 C-60.27617187 71.10828125 -60.27617187 71.10828125 -61.578125 71.21875 C-72.39725634 72.04744942 -83.15300908 72.09910956 -94 72 C-94 71.34 -94 70.68 -94 70 C-93.17387207 69.94465088 -92.34774414 69.88930176 -91.49658203 69.83227539 C-88.38402566 69.62295652 -85.2715729 69.41216944 -82.15917969 69.20043945 C-80.16869449 69.06546296 -78.17809825 68.93212711 -76.1875 68.79882812 C-69.11034106 68.31629456 -62.05180926 67.77255887 -55 67 C-54.72631592 66.26692627 -54.45263184 65.53385254 -54.1706543 64.77856445 C-53.06260668 62.14859784 -51.81683279 59.93434728 -50.26953125 57.54296875 C-49.72111572 56.68936768 -49.1727002 55.8357666 -48.60766602 54.95629883 C-48.01526123 54.04259521 -47.42285645 53.1288916 -46.8125 52.1875 C-45.54595019 50.21673987 -44.28035961 48.24536302 -43.015625 46.2734375 C-42.35755859 45.24831055 -41.69949219 44.22318359 -41.02148438 43.16699219 C-37.0450799 36.93729184 -33.14663095 30.65877641 -29.23950195 24.38549805 C-28.07674544 22.51997837 -26.91176478 20.65584283 -25.74438477 18.79321289 C-24.52950038 16.84786758 -23.32502477 14.89599942 -22.12866211 12.93920898 C-21.51901611 11.95380127 -20.90937012 10.96839355 -20.28125 9.953125 C-19.46430664 8.61942871 -19.46430664 8.61942871 -18.63085938 7.25878906 C-14.90985171 2.10508203 -6.27879754 -2.79057669 0 0 Z " fill="#131313" transform="translate(213,180)"/>
<path d="M0 0 C-2.35877893 10.22137536 -7.18988631 20.28482946 -13 29 C-13.66 29 -14.32 29 -15 29 C-16.44641139 26.02508237 -17.8804181 23.04433874 -19.3125 20.0625 C-19.71662109 19.23169922 -20.12074219 18.40089844 -20.53710938 17.54492188 C-23.12530108 12.13707416 -25.25445221 6.73611457 -27 1 C-17.97582223 0.30962574 -9.05638678 -0.15178302 0 0 Z " fill="#F7F7F7" transform="translate(360,169)"/>
<path d="M0 0 C0.86625 0.2784375 0.86625 0.2784375 1.75 0.5625 C4.24369772 1.04738567 5.59211213 0.69906422 8 0 C8.99 0 9.98 0 11 0 C11.33 0.99 11.66 1.98 12 3 C12.33 2.01 12.66 1.02 13 0 C16.3 0 19.6 0 23 0 C23.33 1.32 23.66 2.64 24 4 C22.1875 4.625 22.1875 4.625 20 5 C19.01 4.34 18.02 3.68 17 3 C16.67 3.66 16.34 4.32 16 5 C16.66 5.33 17.32 5.66 18 6 C18.47597366 8.70599842 18.84093629 11.33595404 19.125 14.0625 C19.21136719 14.82111328 19.29773438 15.57972656 19.38671875 16.36132812 C19.59939517 18.23996986 19.80075459 20.11988636 20 22 C18.68 22 17.36 22 16 22 C16 21.01 16 20.02 16 19 C15.34 19 14.68 19 14 19 C14 19.99 14 20.98 14 22 C12.68 22 11.36 22 10 22 C9.67 19.36 9.34 16.72 9 14 C8.67 14.33 8.34 14.66 8 15 C8 15.99 8 16.98 8 18 C8 18.99 8 19.98 8 21 C7 22 7 22 3.5 22.125 C0 22 0 22 -1 21 C-1.07258946 18.81360547 -1.08373783 16.62499611 -1.0625 14.4375 C-1.05347656 13.23996094 -1.04445313 12.04242188 -1.03515625 10.80859375 C-1.02355469 9.88175781 -1.01195313 8.95492188 -1 8 C-0.34 8 0.32 8 1 8 C0.34 7.01 -0.32 6.02 -1 5 C-0.625 2.3125 -0.625 2.3125 0 0 Z " fill="#DADADA" transform="translate(109,296)"/>
<path d="M0 0 C0.680625 -0.01611328 1.36125 -0.03222656 2.0625 -0.04882812 C4.0390625 -0.05078125 4.0390625 -0.05078125 7.375 0.3125 C8.035 1.3025 8.695 2.2925 9.375 3.3125 C9.705 2.6525 10.035 1.9925 10.375 1.3125 C12.53063731 2.54771915 14.67340734 3.79920339 16.8125 5.0625 C17.42416016 5.41054687 18.03582031 5.75859375 18.66601562 6.1171875 C23.11747492 8.77330686 23.11747492 8.77330686 24.375 11.40625 C24.375 14.2801375 22.97738477 16.00506593 21.375 18.3125 C20.055 17.9825 18.735 17.6525 17.375 17.3125 C17.375 18.9625 17.375 20.6125 17.375 22.3125 C13.41835456 20.50317972 9.85863357 18.09567083 6.25 15.6875 C5.5892749 15.24744629 4.9285498 14.80739258 4.24780273 14.35400391 C-1.29043854 10.6223691 -6.5152815 6.61668641 -11.625 2.3125 C-7.92233134 -0.07049958 -4.26195078 -0.02041164 0 0 Z " fill="#F4F4F4" transform="translate(379.625,167.6875)"/>
<path d="M0 0 C6.72974854 0 8.97444581 3.02508467 13.5 7.4375 C14.325 8.283125 15.15 9.12875 16 10 C17.10285608 11.1054757 18.20703964 12.20962854 19.3125 13.3125 C20.199375 14.199375 21.08625 15.08625 22 16 C22.33 10.72 22.66 5.44 23 0 C24.65 0 26.3 0 28 0 C28 7.59 28 15.18 28 23 C22.59757943 23 21.69343567 22.58790894 18 19 C18 18.34 18 17.68 18 17 C17.41476563 16.74347656 16.82953125 16.48695313 16.2265625 16.22265625 C13.80765392 14.89437838 12.26801128 13.43475199 10.375 11.4375 C7.95478041 8.85984611 7.95478041 8.85984611 5 7 C5 12.28 5 17.56 5 23 C3.35 23 1.7 23 0 23 C0 15.41 0 7.82 0 0 Z " fill="#040404" transform="translate(160,324)"/>
<path d="M0 0 C5 0 5 0 7.00463867 1.45288086 C7.6360376 2.11682861 8.26743652 2.78077637 8.91796875 3.46484375 C9.61470703 4.18220703 10.31144531 4.89957031 11.02929688 5.63867188 C12.09760742 6.7765918 12.09760742 6.7765918 13.1875 7.9375 C14.61655617 9.42763782 16.04745642 10.91601003 17.48046875 12.40234375 C18.10848389 13.06741943 18.73649902 13.73249512 19.38354492 14.41772461 C20.92912874 16.09209489 20.92912874 16.09209489 23 17 C23 11.39 23 5.78 23 0 C24.65 0 26.3 0 28 0 C28 7.59 28 15.18 28 23 C22 23 22 23 19.4375 20.98828125 C18.633125 20.10527344 17.82875 19.22226562 17 18.3125 C13.48676541 14.57106437 10.02393907 11.176794 6 8 C5.67 12.95 5.34 17.9 5 23 C3.35 23 1.7 23 0 23 C0 15.41 0 7.82 0 0 Z " fill="#0A0A0A" transform="translate(123,324)"/>
<path d="M0 0 C2.53173828 0.51782227 2.53173828 0.51782227 4.29272461 2.41381836 C4.81116943 3.28087402 5.32961426 4.14792969 5.86376953 5.04125977 C6.43417969 5.97969727 7.00458984 6.91813477 7.59228516 7.88500977 C8.17042969 8.87758789 8.74857422 9.87016602 9.34423828 10.89282227 C9.94171875 11.87766602 10.53919922 12.86250977 11.15478516 13.87719727 C15.53173828 21.18045619 15.53173828 21.18045619 15.53173828 23.51782227 C13.21923828 23.76782227 13.21923828 23.76782227 10.53173828 23.51782227 C10.15017578 22.86813477 9.76861328 22.21844727 9.37548828 21.54907227 C7.55282929 19.11625698 7.55282929 19.11625698 3.73876953 18.90844727 C2.27467405 18.8421986 0.80956138 18.79597695 -0.65576172 18.76782227 C-1.78014648 18.72334961 -1.78014648 18.72334961 -2.92724609 18.67797852 C-4.77367479 18.60741436 -6.62097433 18.56033751 -8.46826172 18.51782227 C-9.45826172 20.99282227 -9.45826172 20.99282227 -10.46826172 23.51782227 C-12.11826172 23.51782227 -13.76826172 23.51782227 -15.46826172 23.51782227 C-13.68183565 18.38837664 -10.91829344 13.85356621 -8.15576172 9.20532227 C-7.68203125 8.36936523 -7.20830078 7.5334082 -6.72021484 6.67211914 C-6.2490625 5.88256836 -5.77791016 5.09301758 -5.29248047 4.27954102 C-4.8705542 3.55726318 -4.44862793 2.83498535 -4.01391602 2.09082031 C-2.46826172 0.51782227 -2.46826172 0.51782227 0 0 Z " fill="#0B0B0B" transform="translate(274.46826171875,323.482177734375)"/>
<path d="M0 0 C4.03402354 1.63882206 6.89127354 4.48651832 10 7.4375 C14.03284864 11.26124464 14.03284864 11.26124464 18.375 14.72265625 C19.179375 15.35494141 19.179375 15.35494141 20 16 C20 16.66 20 17.32 20 18 C17.69 18.33 15.38 18.66 13 19 C13 19.33 13 19.66 13 20 C5.58982977 20.11459026 -1.64206267 19.91160286 -9 19 C-8.39443058 14.52551484 -6.67133996 11.18332894 -4.5 7.25 C-3.8709375 6.10015625 -3.241875 4.9503125 -2.59375 3.765625 C-1 1 -1 1 0 0 Z " fill="#EDEDED" transform="translate(346,203)"/>
<path d="M0 0 C5.63662791 1.12732558 5.63662791 1.12732558 8.8125 4.0625 C9.48925781 4.68382812 10.16601562 5.30515625 10.86328125 5.9453125 C14.29611511 9.24635567 17.66222253 12.60261936 21 16 C21.33 10.72 21.66 5.44 22 0 C23.65 0 25.3 0 27 0 C27 7.59 27 15.18 27 23 C21.37495143 23 21.37495143 23 18.046875 19.75390625 C17.345625 19.08166016 16.644375 18.40941406 15.921875 17.71679688 C15.20515625 17.00587891 14.4884375 16.29496094 13.75 15.5625 C13.0178125 14.85544922 12.285625 14.14839844 11.53125 13.41992188 C9.33708854 11.2968675 7.15889439 9.15889439 5 7 C4.67 12.28 4.34 17.56 4 23 C2.68 23 1.36 23 0 23 C0 15.41 0 7.82 0 0 Z " fill="#0B0B0B" transform="translate(377,324)"/>
<path d="M0 0 C3.48929951 0.87232488 5.07528792 1.51397162 7.93359375 3.43359375 C8.66513672 3.91763672 9.39667969 4.40167969 10.15039062 4.90039062 C10.90513672 5.40763672 11.65988281 5.91488281 12.4375 6.4375 C16.86609029 9.40636611 20.97050141 12.14801641 26 14 C27.37562854 15.28965176 28.70766393 16.62689293 30 18 C31.65191491 19.35156675 33.31522656 20.68962066 35 22 C28.46500079 21.24488597 22.18530927 19.6662788 15.8125 18.0625 C14.73291016 17.79759766 13.65332031 17.53269531 12.54101562 17.25976562 C11.50267578 17.00001953 10.46433594 16.74027344 9.39453125 16.47265625 C8.45456299 16.23812744 7.51459473 16.00359863 6.54614258 15.76196289 C4 15 4 15 0 13 C0 8.71 0 4.42 0 0 Z " fill="#EDEDED" transform="translate(77,257)"/>
<path d="M0 0 C-12.57304665 4.31019135 -25.27275665 8.1733676 -38 12 C-36.19871271 15.7446224 -33.93673421 19.02180735 -31.5 22.375 C-30.60668433 23.614521 -29.71345797 24.85410636 -28.8203125 26.09375 C-28.35915039 26.73183594 -27.89798828 27.36992187 -27.42285156 28.02734375 C-25.06143878 31.30123107 -22.71908745 34.58869794 -20.375 37.875 C-19.52873426 39.05995899 -18.68238837 40.24486074 -17.8359375 41.4296875 C-17.23007813 42.27789062 -16.62421875 43.12609375 -16 44 C-11.74415278 42.39516978 -9.14120996 39.17836888 -6.1875 35.875 C-5.65705078 35.29113525 -5.12660156 34.70727051 -4.58007812 34.10571289 C-1.14025424 30.30836152 2.24636595 26.46554134 5.59765625 22.58984375 C7.31692046 20.64070578 9.12536465 18.79964994 11 17 C11.66 17.33 12.32 17.66 13 18 C12.43152344 18.556875 11.86304688 19.11375 11.27734375 19.6875 C6.95875157 23.95562449 2.76683601 28.25899801 -1.15625 32.89453125 C-2.54366671 34.47889059 -3.99250514 36.00977976 -5.46875 37.51171875 C-6.3040625 38.37410156 -7.139375 39.23648438 -8 40.125 C-9.175625 41.30449219 -9.175625 41.30449219 -10.375 42.5078125 C-12.26207698 44.91319316 -12.26207698 44.91319316 -12.02734375 47.9296875 C-10.78347988 51.64709054 -9.04345748 53.96556839 -6.5625 57 C-5.65397827 58.13229555 -4.74780554 59.26647909 -3.84375 60.40234375 C-3.37582031 60.98741699 -2.90789062 61.57249023 -2.42578125 62.17529297 C-0.0371803 65.23221138 2.19977684 68.39430888 4.4375 71.5625 C6.9190486 75.07225031 9.39784442 78.57787256 12 82 C11.67 82.66 11.34 83.32 11 84 C5.13366485 76.88829761 -0.27386656 69.50312262 -5.59326172 61.98193359 C-14.35193293 49.64196606 -23.32458231 37.45700883 -32.31445312 25.28515625 C-35.00843261 21.6328318 -37.69229016 17.97310654 -40.375 14.3125 C-40.84566895 13.67030518 -41.31633789 13.02811035 -41.80126953 12.36645508 C-42.86770038 10.91110732 -43.93388223 9.45557712 -45 8 C-44.67 7.34 -44.34 6.68 -44 6 C-43.34 7.32 -42.68 8.64 -42 10 C-31.71613418 7.61817822 -21.74665575 4.70701884 -11.765625 1.26953125 C-4.09540954 -1.31638164 -4.09540954 -1.31638164 0 0 Z " fill="#313131" transform="translate(255,195)"/>
<path d="M0 0 C0.76183594 -0.00773437 1.52367187 -0.01546875 2.30859375 -0.0234375 C5.19961543 0.48762699 6.53058641 1.25196921 8.5625 3.375 C9.05859375 5.96875 9.05859375 5.96875 9 8.875 C8.99871094 9.8340625 8.99742187 10.793125 8.99609375 11.78125 C8.5625 14.375 8.5625 14.375 7.27734375 16.1640625 C4.40012168 18.19581385 1.00733817 18.66522446 -2.4375 18.375 C-5.1640625 17.2578125 -5.1640625 17.2578125 -7.4375 15.375 C-8.03125 12.5625 -8.03125 12.5625 -7.9375 9.375 C-7.9271875 8.323125 -7.916875 7.27125 -7.90625 6.1875 C-7.4375 3.375 -7.4375 3.375 -6.18359375 1.5234375 C-3.98406863 0.07676997 -2.6204853 -0.02651419 0 0 Z " fill="#F2F2F2" transform="translate(354.4375,326.625)"/>
<path d="M0 0 C0.99 0.66 1.98 1.32 3 2 C3.46875 4.93359375 3.46875 4.93359375 3.5 8.4375 C3.5309375 9.59121094 3.561875 10.74492187 3.59375 11.93359375 C3 15 3 15 0.7265625 16.91796875 C-3.44101091 18.5718625 -5.63802347 17.98496244 -10 17 C-12.28599681 15.33887703 -12.91484721 14.45951823 -13.43359375 11.66015625 C-13.44389385 4.81058877 -13.44389385 4.81058877 -11.5625 1.375 C-7.8087288 -0.63921869 -4.17748683 -0.66162775 0 0 Z " fill="#F1F1F1" transform="translate(215,327)"/>
<path d="M0 0 C5.70902627 0.49643707 13.79783171 1.79783171 18 6 C18.125 8.5 18.125 8.5 18 11 C16.22509454 12.77490546 13.62215098 12.23499973 11.21484375 12.31640625 C9.46010742 12.37924805 9.46010742 12.37924805 7.66992188 12.44335938 C6.43822266 12.48267578 5.20652344 12.52199219 3.9375 12.5625 C2.08415039 12.62727539 2.08415039 12.62727539 0.19335938 12.69335938 C-2.87097335 12.79984198 -5.93539073 12.90185424 -9 13 C-7.076988 9.75741201 -5.09942336 6.68591063 -2.8125 3.6875 C-2.28269531 2.99011719 -1.75289063 2.29273438 -1.20703125 1.57421875 C-0.80871094 1.05472656 -0.41039062 0.53523437 0 0 Z " fill="#F3F3F3" transform="translate(398,194)"/>
<path d="M0 0 C1.98 0 3.96 0 6 0 C6.84884766 1.71509766 6.84884766 1.71509766 7.71484375 3.46484375 C8.45562408 4.95578138 9.19651522 6.44666396 9.9375 7.9375 C10.31068359 8.69224609 10.68386719 9.44699219 11.06835938 10.22460938 C11.42607422 10.94326172 11.78378906 11.66191406 12.15234375 12.40234375 C12.6472229 13.39995728 12.6472229 13.39995728 13.15209961 14.41772461 C13.89977008 15.99619363 13.89977008 15.99619363 15 17 C17.97 11.39 20.94 5.78 24 0 C25.65 0 27.3 0 29 0 C27.49289345 5.22957737 25.13433901 9.63031032 22.4375 14.3125 C22.02564453 15.04017578 21.61378906 15.76785156 21.18945312 16.51757812 C18.15697714 21.84302286 18.15697714 21.84302286 17 23 C15.33382885 23.04063832 13.66611905 23.042721 12 23 C10.55793859 20.48168311 9.12128792 17.96052215 7.6875 15.4375 C7.28337891 14.73302734 6.87925781 14.02855469 6.46289062 13.30273438 C4.00165085 8.96054712 1.87803838 4.62520133 0 0 Z " fill="#080808" transform="translate(229,324)"/>
<path d="M0 0 C1.4375 2.1875 1.4375 2.1875 2 4 C-0.25 4.1875 -0.25 4.1875 -3 4 C-3.5775 3.505 -4.155 3.01 -4.75 2.5 C-8.19284481 0.20477012 -11.96636548 0.40040568 -16 1 C-18.59400506 3.59400506 -18.32711615 4.83184616 -18.375 8.4375 C-18.40335937 9.40558594 -18.43171875 10.37367188 -18.4609375 11.37109375 C-18.24105618 14.11133734 -18.24105618 14.11133734 -16.1640625 15.82421875 C-13.22912377 17.41883347 -11.29529714 17.41191214 -8 17 C-7.34 16.505 -6.68 16.01 -6 15.5 C-3.28849596 13.46637197 -1.30143322 13.77490228 2 14 C-1.75 18.875 -1.75 18.875 -4 20 C-6.26645766 20.17522676 -8.53972854 20.26728256 -10.8125 20.3125 C-12.64748047 20.36857422 -12.64748047 20.36857422 -14.51953125 20.42578125 C-18.5737799 19.92980695 -20.14043139 18.84899719 -23 16 C-25.09402695 11.8119461 -24.55870835 6.55036909 -24 2 C-17.90377958 -5.28159661 -7.63496929 -4.2755828 0 0 Z " fill="#090909" transform="translate(318,327)"/>
<path d="M0 0 C0 0.66 0 1.32 0 2 C2.97 2 5.94 2 9 2 C9 2.33 9 2.66 9 3 C8.410979 3.02505615 7.82195801 3.0501123 7.21508789 3.07592773 C4.49741329 3.19332361 1.77996658 3.31538715 -0.9375 3.4375 C-1.86369141 3.47681641 -2.78988281 3.51613281 -3.74414062 3.55664062 C-8.06110724 3.75355489 -12.3346994 4.00517354 -16.625 4.53125 C-21.11725046 5.06779514 -25.54313802 5.11399142 -30.0625 5.0625 C-30.83271484 5.05798828 -31.60292969 5.05347656 -32.39648438 5.04882812 C-34.2643578 5.03722643 -36.13219026 5.01929999 -38 5 C-34.67970644 8.66319542 -30.9834829 11.06349566 -26.8125 13.625 C-20.13343614 17.73312772 -20.13343614 17.73312772 -19 20 C-23.74966842 18.39538229 -27.53737518 15.75971753 -31.625 12.9375 C-32.94832825 12.02675382 -34.27377066 11.11906999 -35.6015625 10.21484375 C-36.18244629 9.81386475 -36.76333008 9.41288574 -37.36181641 8.99975586 C-39.14643956 7.82659133 -39.14643956 7.82659133 -42 7 C-42 8.98 -42 10.96 -42 13 C-42.99 13.33 -43.98 13.66 -45 14 C-44.88648483 12.18674449 -44.75887039 10.37436643 -44.625 8.5625 C-44.55539063 7.55316406 -44.48578125 6.54382813 -44.4140625 5.50390625 C-44.27742188 4.67761719 -44.14078125 3.85132813 -44 3 C-41.22817704 1.61408852 -38.75773145 1.67255118 -35.6640625 1.46484375 C-34.37113281 1.37783203 -33.07820313 1.29082031 -31.74609375 1.20117188 C-31.06788574 1.15790771 -30.38967773 1.11464355 -29.69091797 1.07006836 C-27.66718159 0.94020676 -25.64417754 0.80172646 -23.62109375 0.66210938 C-15.73408888 0.14435437 -7.90352973 -0.12549712 0 0 Z " fill="#232323" transform="translate(119,250)"/>
<path d="M0 0 C-1.05356792 1.27824811 -2.11832783 2.54727493 -3.1875 3.8125 C-3.77917969 4.52019531 -4.37085938 5.22789062 -4.98046875 5.95703125 C-8.57922345 9.597551 -11.3005085 11.1577133 -16.42578125 11.29296875 C-18.05494668 11.27318132 -19.68398573 11.23762791 -21.3125 11.1875 C-22.14845703 11.17396484 -22.98441406 11.16042969 -23.84570312 11.14648438 C-25.89741498 11.11131217 -27.94879275 11.05751048 -30 11 C-29.63989258 9.07470703 -29.63989258 9.07470703 -29 7 C-25.71328738 5.24479221 -22.47195181 4.65472862 -18.8125 4.125 C-13.86657281 3.30179426 -9.63974231 1.79553096 -5.09375 -0.29296875 C-3 -1 -3 -1 0 0 Z " fill="#DBDBDB" transform="translate(264,285)"/>
<path d="M0 0 C1.31640625 1.390625 1.31640625 1.390625 2.5625 3.25 C2.99304688 3.89066406 3.42359375 4.53132813 3.8671875 5.19140625 C5.05084627 7.0811787 6.08772595 8.96492712 7 11 C7.37125 11.7425 7.7425 12.485 8.125 13.25 C8.558125 14.11625 8.558125 14.11625 9 15 C3.18733381 14.21450457 -2.36877624 12.59317541 -8 11 C-8 10.34 -8 9.68 -8 9 C-10.31 8.67 -12.62 8.34 -15 8 C-15 7.34 -15 6.68 -15 6 C-13.06629769 4.99267601 -11.12789694 3.99436712 -9.1875 3 C-8.10855469 2.443125 -7.02960938 1.88625 -5.91796875 1.3125 C-3 0 -3 0 0 0 Z " fill="#F2F2F2" transform="translate(333,300)"/>
<path d="M0 0 C5.94 0.33 11.88 0.66 18 1 C18.33 1.66 18.66 2.32 19 3 C17.54927753 5.00593724 16.09008971 7.00460174 14.625 9 C14.2125 9.57234375 13.8 10.1446875 13.375 10.734375 C12.29828281 12.19315312 11.15333422 13.60100976 10 15 C9.34 15 8.68 15 8 15 C6.52690889 12.89980986 5.18690365 10.82232271 3.875 8.625 C3.50246094 8.02171875 3.12992187 7.4184375 2.74609375 6.796875 C0 2.27034684 0 2.27034684 0 0 Z " fill="#F2F2F2" transform="translate(378,191)"/>
<path d="M0 0 C0.99 0 1.98 0 3 0 C3 0.66 3 1.32 3 2 C3.66 2 4.32 2 5 2 C5.84621725 9.76695624 6.13572505 17.42101746 6.09765625 25.23046875 C6.0962413 26.34690262 6.09482635 27.46333649 6.09336853 28.61360168 C6.08782367 32.13826309 6.0752818 35.66285818 6.0625 39.1875 C6.05747786 41.59440012 6.05291621 44.00130124 6.04882812 46.40820312 C6.03787238 52.27215759 6.02119022 58.13607406 6 64 C5.34 64 4.68 64 4 64 C3.13298788 56.81629059 2.86495669 49.75507995 2.90234375 42.5234375 C2.9037587 41.47217682 2.90517365 40.42091614 2.90663147 39.33779907 C2.91217913 36.01683572 2.92472158 32.69594259 2.9375 29.375 C2.94252177 27.1080739 2.94708349 24.84114673 2.95117188 22.57421875 C2.96127573 17.04943108 2.98086099 11.52479311 3 6 C0.69 12.93 -1.62 19.86 -4 27 C-5.00569779 22.97720885 -5.00730064 22.14449989 -3.78515625 18.453125 C-3.51123047 17.60878906 -3.23730469 16.76445312 -2.95507812 15.89453125 C-2.51325195 14.58548828 -2.51325195 14.58548828 -2.0625 13.25 C-1.77181641 12.36183594 -1.48113281 11.47367188 -1.18164062 10.55859375 C-0.46360682 8.36917921 0.26385523 6.18337811 1 4 C0.01 4 -0.98 4 -2 4 C-1.34 2.68 -0.68 1.36 0 0 Z " fill="#5A5A5A" transform="translate(329,229)"/>
<path d="M0 0 C2.94956528 1.36944102 5.52468811 2.87830409 8 5 C8 5.66 8 6.32 8 7 C5.36 6.67 2.72 6.34 0 6 C0.09539062 6.98742187 0.19078125 7.97484375 0.2890625 8.9921875 C0.39992188 10.27351562 0.51078125 11.55484375 0.625 12.875 C0.74101562 14.15117187 0.85703125 15.42734375 0.9765625 16.7421875 C0.98429687 17.81726563 0.99203125 18.89234375 1 20 C0.34 20.66 -0.32 21.32 -1 22 C-3.125 21.625 -3.125 21.625 -5 21 C-7.83631165 9.83202287 -7.83631165 9.83202287 -7 5 C-4.88806134 2.91966142 -2.58626857 1.43168439 0 0 Z " fill="#EFEFEF" transform="translate(424,193)"/>
<path d="M0 0 C0.33 0 0.66 0 1 0 C1 3.96 1 7.92 1 12 C0.34 12 -0.32 12 -1 12 C-1.20302734 13.08667969 -1.20302734 13.08667969 -1.41015625 14.1953125 C-2.80340627 20.45242336 -4.23292818 24.14556883 -9.37890625 28.07421875 C-11 29 -11 29 -13 29 C-11.14734097 21.21280717 -8.5172123 14.18734688 -5 7 C-4.34 7 -3.68 7 -3 7 C-2.690625 6.030625 -2.38125 5.06125 -2.0625 4.0625 C-1 1 -1 1 0 0 Z " fill="#E0E0E0" transform="translate(361,240)"/>
<path d="M0 0 C1.98 0 3.96 0 6 0 C6 7.59 6 15.18 6 23 C4.02 23 2.04 23 0 23 C0 15.41 0 7.82 0 0 Z " fill="#191919" transform="translate(327,324)"/>
<path d="M0 0 C0.02694851 1.95825873 0.04637218 3.91662226 0.0625 5.875 C0.07410156 6.96554687 0.08570313 8.05609375 0.09765625 9.1796875 C0 12 0 12 -1 14 C-3.875 14.125 -3.875 14.125 -7 14 C-9 12 -9 12 -9.1953125 9.1796875 C-9.17210937 8.08914063 -9.14890625 6.99859375 -9.125 5.875 C-9.10695312 4.77929688 -9.08890625 3.68359375 -9.0703125 2.5546875 C-9.04710937 1.71164062 -9.02390625 0.86859375 -9 0 C-5.93109813 -1.53445094 -3.29905734 -0.54984289 0 0 Z " fill="#212121" transform="translate(161,304)"/>
<path d="M0 0 C2.9375 0.375 2.9375 0.375 6 1 C6.33 1.66 6.66 2.32 7 3 C8.36125 3.37125 8.36125 3.37125 9.75 3.75 C14.00067558 5.38487522 15.2139456 7.45583556 18 11 C15.3941111 11.13494246 12.79517889 11.23402299 10.1875 11.3125 C9.08051758 11.3753418 9.08051758 11.3753418 7.95117188 11.43945312 C5.79296875 11.48828125 5.79296875 11.48828125 2 11 C-0.03125 8.6875 -0.03125 8.6875 -1 6 C-0.6875 2.6875 -0.6875 2.6875 0 0 Z " fill="#F5F5F5" transform="translate(405,179)"/>
<path d="M0 0 C2.32208388 1.23444975 4.6315297 2.48608625 6.9375 3.75 C7.59685547 4.09804687 8.25621094 4.44609375 8.93554688 4.8046875 C13.73559362 7.46317493 13.73559362 7.46317493 15.03125 10.09375 C14.98430899 12.95715139 13.59900982 14.69742586 12 17 C8.11518872 16.44502696 6.40269885 15.0784579 4 12 C0 3.52054795 0 3.52054795 0 0 Z " fill="#D6D6D6" transform="translate(389,169)"/>
<path d="M0 0 C4.70734412 1.57511515 8.34290011 4.1721734 12.3125 7.0625 C12.95767578 7.52205078 13.60285156 7.98160156 14.26757812 8.45507812 C15.86660145 9.60739017 17.43627337 10.80022598 19 12 C19 12.33 19 12.66 19 13 C16.74971671 12.85860519 14.49977794 12.71171997 12.25 12.5625 C10.37054688 12.44068359 10.37054688 12.44068359 8.453125 12.31640625 C5.81682447 12.07484478 3.51962706 11.75716066 1 11 C-0.17571451 7.32589215 -0.07366746 3.83070817 0 0 Z " fill="#ECECEC" transform="translate(375,178)"/>
<path d="M0 0 C1.65 0 3.3 0 5 0 C5 7.59 5 15.18 5 23 C3.35 23 1.7 23 0 23 C0 15.41 0 7.82 0 0 Z " fill="#020202" transform="translate(108,324)"/>
<path d="M0 0 C0.99 0.33 1.98 0.66 3 1 C2.01 1.66 1.02 2.32 0 3 C0.495 9.93 0.495 9.93 1 17 C0.01 17.495 0.01 17.495 -1 18 C-1.495 16.02 -1.495 16.02 -2 14 C-2.66 14.33 -3.32 14.66 -4 15 C-4 14.34 -4 13.68 -4 13 C-12.58 13 -21.16 13 -30 13 C-28.35 16.3 -26.7 19.6 -25 23 C-25.33 23.66 -25.66 24.32 -26 25 C-27.7004792 22.04894616 -29.38311093 19.08809878 -31.0625 16.125 C-31.54783203 15.28324219 -32.03316406 14.44148437 -32.53320312 13.57421875 C-32.98759766 12.76855469 -33.44199219 11.96289062 -33.91015625 11.1328125 C-34.33433838 10.38918457 -34.75852051 9.64555664 -35.19555664 8.87939453 C-35.46102295 8.25919434 -35.72648926 7.63899414 -36 7 C-35.67 6.34 -35.34 5.68 -35 5 C-32 8.75 -32 8.75 -32 11 C-31.01 10.67 -30.02 10.34 -29 10 C-29 10.66 -29 11.32 -29 12 C-28.22398437 11.84660156 -27.44796875 11.69320312 -26.6484375 11.53515625 C-21.97800532 10.85009286 -17.33744915 10.64253523 -12.625 10.4375 C-11.69816406 10.39431641 -10.77132813 10.35113281 -9.81640625 10.30664062 C-7.54439706 10.20123814 -5.27229075 10.09911394 -3 10 C-3 8.35 -3 6.7 -3 5 C-4.98 4.01 -6.96 3.02 -9 2 C-6.06193103 1.02064368 -4.04722362 1 -1 1 C-0.67 0.67 -0.34 0.34 0 0 Z " fill="#2A2A2A" transform="translate(418,195)"/>
<path d="M0 0 C6.27 0 12.54 0 19 0 C17.96532992 4.1386803 16.43050464 6.55025148 14 10 C10.07108277 9.41249836 7.78063106 7.48121841 4.75 5 C3.85796875 4.278125 2.9659375 3.55625 2.046875 2.8125 C1.37140625 2.214375 0.6959375 1.61625 0 1 C0 0.67 0 0.34 0 0 Z " fill="#F5F5F5" transform="translate(231,297)"/>
<path d="M0 0 C1.26166368 3.18493149 1.7167578 5.62382362 1 9 C-2.56469199 12.97114378 -6.5430466 16.0795066 -11 19 C-11.66 19 -12.32 19 -13 19 C-12.44733314 14.46980647 -10.66797015 11.56175086 -8.125 7.8125 C-7.42632812 6.76707031 -6.72765625 5.72164062 -6.0078125 4.64453125 C-2.48153619 0 -2.48153619 0 0 0 Z " fill="#BFBFBF" transform="translate(417,208)"/>
<path d="M0 0 C1.98 0 3.96 0 6 0 C6.66 4.95 7.32 9.9 8 15 C6.68 15 5.36 15 4 15 C4 14.01 4 13.02 4 12 C3.34 12 2.68 12 2 12 C2 12.99 2 13.98 2 15 C0.68 15 -0.64 15 -2 15 C-1.34 10.05 -0.68 5.1 0 0 Z " fill="#111111" transform="translate(121,303)"/>
<path d="M0 0 C0.99 0 1.98 0 3 0 C5.31 4.62 7.62 9.24 10 14 C4.07756617 13.15393802 0.35264798 12.15984041 -5 10 C-3.66786942 6.4134946 -2.23083941 3.12317517 0 0 Z " fill="#EDEDED" transform="translate(251,299)"/>
<path d="M0 0 C2.31 0 4.62 0 7 0 C8 1 8 1 8.09765625 4.16015625 C8.08605469 5.44792969 8.07445312 6.73570312 8.0625 8.0625 C8.05347656 9.35285156 8.04445312 10.64320313 8.03515625 11.97265625 C8.02355469 12.97167969 8.01195312 13.97070312 8 15 C7.01 15 6.02 15 5 15 C5 12.69 5 10.38 5 8 C4.34 8 3.68 8 3 8 C3 10.31 3 12.62 3 15 C2.01 15 1.02 15 0 15 C0 10.05 0 5.1 0 0 Z " fill="#0D0D0D" transform="translate(164,303)"/>
<path d="M0 0 C0 1.65 0 3.3 0 5 C-0.99 5 -1.98 5 -3 5 C-3 3.68 -3 2.36 -3 1 C-3.66 1 -4.32 1 -5 1 C-5 4.63 -5 8.26 -5 12 C-4.34 12 -3.68 12 -3 12 C-3 10.68 -3 9.36 -3 8 C-2.01 8 -1.02 8 0 8 C0.042721 9.66611905 0.04063832 11.33382885 0 13 C-1 14 -1 14 -4.5 14.125 C-8 14 -8 14 -9 13 C-9.07258946 10.81360547 -9.08373783 8.62499611 -9.0625 6.4375 C-9.05347656 5.23996094 -9.04445313 4.04242188 -9.03515625 2.80859375 C-9.02355469 1.88175781 -9.01195313 0.95492188 -9 0 C-5.93109813 -1.53445094 -3.29905734 -0.54984289 0 0 Z " fill="#0A0A0A" transform="translate(117,304)"/>
<path d="M0 0 C2.64465038 3.1254959 3.84414715 6.08788267 5 10 C6.65 8.68 8.3 7.36 10 6 C9.34 8.31 8.68 10.62 8 13 C8.40839111 13.37809814 8.81678223 13.75619629 9.23754883 14.14575195 C11.09643274 15.86739042 12.95447386 17.58993586 14.8125 19.3125 C15.45509766 19.90740234 16.09769531 20.50230469 16.75976562 21.11523438 C17.38173828 21.69208984 18.00371094 22.26894531 18.64453125 22.86328125 C19.21534424 23.39219971 19.78615723 23.92111816 20.37426758 24.46606445 C21.9463263 25.94935699 23.47983718 27.4637295 25 29 C21.81722272 28.41751123 20.1454454 27.52603679 17.8359375 25.27734375 C17.27132813 24.73916016 16.70671875 24.20097656 16.125 23.64648438 C15.5475 23.08251953 14.97 22.51855469 14.375 21.9375 C10.74575737 17.7700693 10.74575737 17.7700693 6 16 C4.37485532 17.45833358 4.37485532 17.45833358 3 19 C3.33 17.02 3.66 15.04 4 13 C3.30132812 12.80664062 2.60265625 12.61328125 1.8828125 12.4140625 C0.97273438 12.15367187 0.06265625 11.89328125 -0.875 11.625 C-1.77992188 11.36976563 -2.68484375 11.11453125 -3.6171875 10.8515625 C-6 10 -6 10 -8 8 C-6.56206608 8.31049726 -5.1246682 8.6234776 -3.6875 8.9375 C-2.88699219 9.11152344 -2.08648437 9.28554687 -1.26171875 9.46484375 C1 10 1 10 4 11 C3.71125 10.45730469 3.4225 9.91460937 3.125 9.35546875 C2.75375 8.64003906 2.3825 7.92460937 2 7.1875 C1.443125 6.12595703 1.443125 6.12595703 0.875 5.04296875 C0 3 0 3 0 0 Z " fill="#2A2A2A" transform="translate(340,188)"/>
<path d="M0 0 C0 0.66 0 1.32 0 2 C2.97 2 5.94 2 9 2 C9 2.33 9 2.66 9 3 C-4.34868658 3.74380741 -17.63070304 4.13751277 -31 4 C-30.67 3.34 -30.34 2.68 -30 2 C-27.20801924 1.51102607 -24.50232991 1.15032078 -21.6875 0.875 C-20.87748535 0.79008301 -20.0674707 0.70516602 -19.23291016 0.61767578 C-12.81217971 -0.01485207 -6.45111947 -0.22768657 0 0 Z " fill="#1D1D1D" transform="translate(119,250)"/>
<path d="M0 0 C1.134375 0.020625 2.26875 0.04125 3.4375 0.0625 C3.4375 1.3825 3.4375 2.7025 3.4375 4.0625 C2.4475 4.3925 1.4575 4.7225 0.4375 5.0625 C1.0975 5.43375 1.7575 5.805 2.4375 6.1875 C4.4375 8.0625 4.4375 8.0625 4.75 11.1875 C4.4375 14.0625 4.4375 14.0625 3.4375 15.0625 C1.43791636 15.10330783 -0.56295254 15.10504356 -2.5625 15.0625 C-2.8925 13.4125 -3.2225 11.7625 -3.5625 10.0625 C-2.5725 10.0625 -1.5825 10.0625 -0.5625 10.0625 C-0.5625 11.0525 -0.5625 12.0425 -0.5625 13.0625 C0.0975 13.0625 0.7575 13.0625 1.4375 13.0625 C0.3644128 10.46920594 -0.32551998 9.22281001 -2.6875 7.625 C-4.5625 6.0625 -4.5625 6.0625 -4.875 3.4375 C-4.37298113 -0.3778434 -4.04860926 0.07102823 0 0 Z " fill="#0D0D0D" transform="translate(188.5625,302.9375)"/>
<path d="M0 0 C0.66 0.99 1.32 1.98 2 3 C1.67 4.32 1.34 5.64 1 7 C-5.27 6.34 -11.54 5.68 -18 5 C-18 4.34 -18 3.68 -18 3 C-15.565036 2.30215669 -13.12772895 1.61646178 -10.6875 0.9375 C-9.65206055 0.63875977 -9.65206055 0.63875977 -8.59570312 0.33398438 C-3.33984375 -1.11328125 -3.33984375 -1.11328125 0 0 Z " fill="#EFEFEF" transform="translate(284,287)"/>
<path d="M0 0 C1.4540625 0.0309375 1.4540625 0.0309375 2.9375 0.0625 C3.2675 1.3825 3.5975 2.7025 3.9375 4.0625 C2.9475 4.0625 1.9575 4.0625 0.9375 4.0625 C0.9375 3.4025 0.9375 2.7425 0.9375 2.0625 C0.2775 2.0625 -0.3825 2.0625 -1.0625 2.0625 C-0.3783016 5.16608292 -0.3783016 5.16608292 2 6.375 C3.9375 8.0625 3.9375 8.0625 4.25 11.1875 C3.9375 14.0625 3.9375 14.0625 2.9375 15.0625 C0.93791636 15.10330783 -1.06295254 15.10504356 -3.0625 15.0625 C-3.3925 13.4125 -3.7225 11.7625 -4.0625 10.0625 C-3.0725 10.0625 -2.0825 10.0625 -1.0625 10.0625 C-1.0625 11.0525 -1.0625 12.0425 -1.0625 13.0625 C-0.4025 13.0625 0.2575 13.0625 0.9375 13.0625 C-0.43233503 9.90134224 -1.0515638 9.0697908 -4.0625 7.0625 C-4.3125 4 -4.3125 4 -4.0625 1.0625 C-3.0625 0.0625 -3.0625 0.0625 0 0 Z " fill="#040404" transform="translate(135.0625,302.9375)"/>
<path d="M0 0 C5.50001108 0.41250083 9.80255642 2.49267665 14 6 C15.234375 8.16796875 15.234375 8.16796875 16 10 C6.9089969 10.4622544 6.9089969 10.4622544 3 7 C1.73341368 4.7017587 0.89141499 2.48657865 0 0 Z " fill="#EEEEEE" transform="translate(255,299)"/>
<path d="M0 0 C3 1 3 1 4 3 C6.3140622 3.73075648 8.64828869 4.40138258 11 5 C9.02 5.99 9.02 5.99 7 7 C6.66602213 9.87413125 6.66602213 9.87413125 7 13 C8.94009522 14.70532323 8.94009522 14.70532323 11 16 C11 16.99 11 17.98 11 19 C10.34 19 9.68 19 9 19 C9 18.01 9 17.02 9 16 C8.01 16 7.02 16 6 16 C5.67 16.99 5.34 17.98 5 19 C4.34 19.33 3.68 19.66 3 20 C2.67 15.05 2.34 10.1 2 5 C1.01 4.67 0.02 4.34 -1 4 C-0.67 2.68 -0.34 1.36 0 0 Z " fill="#DDDDDD" transform="translate(125,297)"/>
<path d="M0 0 C2.31 0 4.62 0 7 0 C7 0.99 7 1.98 7 3 C6.01 3 5.02 3 4 3 C4 3.99 4 4.98 4 6 C4.66 6 5.32 6 6 6 C6 6.66 6 7.32 6 8 C5.34 8 4.68 8 4 8 C4 9.32 4 10.64 4 12 C4.99 12 5.98 12 7 12 C7 12.99 7 13.98 7 15 C4.69 15 2.38 15 0 15 C0 10.05 0 5.1 0 0 Z " fill="#171717" transform="translate(175,303)"/>
<path d="M0 0 C0.33 0.66 0.66 1.32 1 2 C0.10333658 4.24310013 -0.89146683 6.44754321 -1.9375 8.625 C-2.50339844 9.81351563 -3.06929688 11.00203125 -3.65234375 12.2265625 C-4.09707031 13.14179688 -4.54179687 14.05703125 -5 15 C-1.7 15 1.6 15 5 15 C5 15.33 5 15.66 5 16 C4.28972656 16.06058594 3.57945312 16.12117188 2.84765625 16.18359375 C1.46900391 16.30927734 1.46900391 16.30927734 0.0625 16.4375 C-0.85402344 16.51871094 -1.77054687 16.59992188 -2.71484375 16.68359375 C-4.96159732 16.76044976 -4.96159732 16.76044976 -6 18 C-6.23701239 20.85877909 -6.42219182 23.69883297 -6.5625 26.5625 C-6.60568359 27.36880859 -6.64886719 28.17511719 -6.69335938 29.00585938 C-6.79975262 31.00368805 -6.90040888 33.0018207 -7 35 C-7.33 35 -7.66 35 -8 35 C-8 31.37 -8 27.74 -8 24 C-8.66 24 -9.32 24 -10 24 C-10 23.34 -10 22.68 -10 22 C-10.66 21.67 -11.32 21.34 -12 21 C-9.36960986 14.3613963 -9.36960986 14.3613963 -7.59375 12.625 C-5.44961893 10.43882714 -4.24221628 8.01307519 -2.8125 5.3125 C-2.28269531 4.31863281 -1.75289063 3.32476562 -1.20703125 2.30078125 C-0.80871094 1.54152344 -0.41039062 0.78226563 0 0 Z " fill="#0F0F0F" transform="translate(342,207)"/>
<path d="M0 0 C2.97 0 5.94 0 9 0 C9 0.99 9 1.98 9 3 C8.34 3 7.68 3 7 3 C7 6.96 7 10.92 7 15 C5.68 15 4.36 15 3 15 C3 11.04 3 7.08 3 3 C2.01 3 1.02 3 0 3 C0 2.01 0 1.02 0 0 Z " fill="#181818" transform="translate(141,303)"/>
<path d="M0 0 C-0.33 0.66 -0.66 1.32 -1 2 C-10.82293695 4.25863626 -21.97378158 3.08837999 -32 3 C-32 2.34 -32 1.68 -32 1 C-27.92543173 0.68914723 -23.85035972 0.38621042 -19.7746582 0.09057617 C-18.38842945 -0.01109249 -17.00235708 -0.11491751 -15.61645508 -0.22094727 C-13.62363516 -0.37303277 -11.63017889 -0.51670626 -9.63671875 -0.66015625 C-7.83787231 -0.79369507 -7.83787231 -0.79369507 -6.00268555 -0.92993164 C-3 -1 -3 -1 0 0 Z " fill="#030303" transform="translate(151,249)"/>
<path d="M0 0 C1.82421875 0.22265625 1.82421875 0.22265625 4 1 C5.51953125 2.99609375 5.51953125 2.99609375 6.8125 5.4375 C7.25207031 6.24058594 7.69164062 7.04367188 8.14453125 7.87109375 C8.42683594 8.57363281 8.70914062 9.27617187 9 10 C8.67 10.66 8.34 11.32 8 12 C3.71 10.02 -0.58 8.04 -5 6 C-3.35 4.02 -1.7 2.04 0 0 Z " fill="#F0F0F0" transform="translate(364,176)"/>
<path d="M0 0 C2 2 2 2 2.875 4.4375 C4.15496592 7.35297793 5.48934262 8.15885125 8 10 C8 10.99 8 11.98 8 13 C7.34 13 6.68 13 6 13 C6 12.01 6 11.02 6 10 C5.01 10 4.02 10 3 10 C2.87625 10.639375 2.7525 11.27875 2.625 11.9375 C2.41875 12.618125 2.2125 13.29875 2 14 C1.01 14.495 1.01 14.495 0 15 C0 14.01 0 13.02 0 12 C-0.99 12 -1.98 12 -3 12 C-3 10.68 -3 9.36 -3 8 C-2.34 8 -1.68 8 -1 8 C-1 7.34 -1 6.68 -1 6 C-1.66 6 -2.32 6 -3 6 C-3 5.01 -3 4.02 -3 3 C-2.01 3 -1.02 3 0 3 C0 2.01 0 1.02 0 0 Z " fill="#D5D5D5" transform="translate(182,303)"/>
<path d="M0 0 C-0.6099126 4.98844309 -1.63474435 9.60155346 -3.0625 14.4375 C-3.42472656 15.67371094 -3.78695313 16.90992188 -4.16015625 18.18359375 C-4.43730469 19.11300781 -4.71445312 20.04242188 -5 21 C-5.82638376 18.10765685 -6 16.11257569 -6 13 C-6.99 14.98 -7.98 16.96 -9 19 C-10.41576622 14.75270133 -8.53926891 12.18599056 -6.6875 8.375 C-6.20506836 7.33472656 -6.20506836 7.33472656 -5.71289062 6.2734375 C-2.72933197 0 -2.72933197 0 0 0 Z " fill="#3F3F3F" transform="translate(367,228)"/>
<path d="M0 0 C2.61724095 2.36797991 4.32861729 4.89600354 6 8 C6 8.66 6 9.32 6 10 C2.37 10 -1.26 10 -5 10 C-3.51799926 6.29499816 -2.091496 3.32738 0 0 Z " fill="#EDEDED" transform="translate(274,329)"/>
<path d="M0 0 C1.375 2.75 1.375 2.75 2.375 5.75 C-3.43766619 4.96450457 -8.99377624 3.34317541 -14.625 1.75 C-14.295 0.76 -13.965 -0.23 -13.625 -1.25 C-3.51274779 -3.01092668 -3.51274779 -3.01092668 0 0 Z " fill="#C0C0C0" transform="translate(339.625,309.25)"/>
<path d="M0 0 C-1.22527029 4.05281712 -2.69880494 7.44360764 -5 11 C-7.46800047 9.84826645 -9.04783565 8.95216435 -11 7 C-11 6.01 -11 5.02 -11 4 C-9.73308493 3.32591692 -8.46129251 2.66099503 -7.1875 2 C-6.47980469 1.62875 -5.77210938 1.2575 -5.04296875 0.875 C-3 0 -3 0 0 0 Z " fill="#EEEEEE" transform="translate(362,276)"/>
<path d="M0 0 C-3.66002197 3.05001831 -9.07851471 7 -14 7 C-16 4 -16 4 -16 1 C-10.61509359 0.08342019 -5.45769811 -0.11138159 0 0 Z " fill="#E4E4E4" transform="translate(327,300)"/>
<path d="M0 0 C5.28 0 10.56 0 16 0 C11 5 11 5 8.8671875 5.33984375 C5.3737762 4.63431166 2.9954962 3.99699747 0 2 C0 1.34 0 0.68 0 0 Z " fill="#F2F2F2" transform="translate(406,192)"/>
<path d="M0 0 C0.86625 0.2784375 0.86625 0.2784375 1.75 0.5625 C4.24369772 1.04738567 5.59211213 0.69906422 8 0 C8.99 0 9.98 0 11 0 C11.33 0.99 11.66 1.98 12 3 C12.66 2.01 13.32 1.02 14 0 C13.67 1.65 13.34 3.3 13 5 C12.401875 4.814375 11.80375 4.62875 11.1875 4.4375 C8.83591238 3.77906313 8.83591238 3.77906313 6 5 C3.66700175 5.03954234 1.33291811 5.04401732 -1 5 C-0.67 3.35 -0.34 1.7 0 0 Z " fill="#909090" transform="translate(109,296)"/>
<path d="M0 0 C0.99 0 1.98 0 3 0 C2.47650497 6.6198928 1.15274936 12.31765553 -1.0625 18.5625 C-1.34416016 19.38041016 -1.62582031 20.19832031 -1.91601562 21.04101562 C-2.60235441 23.03023483 -3.2999845 25.0155524 -4 27 C-5.11378736 23.68177296 -4.87728255 21.75179221 -3.78515625 18.453125 C-3.51123047 17.60878906 -3.23730469 16.76445312 -2.95507812 15.89453125 C-2.51325195 14.58548828 -2.51325195 14.58548828 -2.0625 13.25 C-1.77181641 12.36183594 -1.48113281 11.47367188 -1.18164062 10.55859375 C-0.46360682 8.36917921 0.26385523 6.18337811 1 4 C0.01 4 -0.98 4 -2 4 C-1.34 2.68 -0.68 1.36 0 0 Z " fill="#3F3F3F" transform="translate(329,229)"/>
<path d="M0 0 C1.37562854 1.28965176 2.70766393 2.62689293 4 4 C4 4.66 4 5.32 4 6 C4.99 5.67 5.98 5.34 7 5 C7 5.66 7 6.32 7 7 C10.96 7 14.92 7 19 7 C19 7.33 19 7.66 19 8 C14.71 8 10.42 8 6 8 C6.845625 9.60875 7.69125 11.2175 8.5625 12.875 C10.00390625 15.6171875 10.00390625 15.6171875 11 18 C10.67 18.66 10.34 19.32 10 20 C8.3264663 17.04550087 6.66236015 14.0857982 5 11.125 C4.52304687 10.28324219 4.04609375 9.44148437 3.5546875 8.57421875 C3.10351562 7.76855469 2.65234375 6.96289062 2.1875 6.1328125 C1.76855469 5.38918457 1.34960938 4.64555664 0.91796875 3.87939453 C0 2 0 2 0 0 Z " fill="#101010" transform="translate(382,200)"/>
<path d="M0 0 C1.875 0.8125 1.875 0.8125 3.875 2.8125 C3.875 3.8025 3.875 4.7925 3.875 5.8125 C0.245 5.8125 -3.385 5.8125 -7.125 5.8125 C-5.89542897 2.12378691 -4.1897601 -0.36968471 0 0 Z " fill="#D8D8D8" transform="translate(358.125,267.1875)"/>
<path d="M0 0 C0.66 1.32 1.32 2.64 2 4 C7.28 4 12.56 4 18 4 C18 4.33 18 4.66 18 5 C6.64764338 6.05253638 -4.60946892 6.10313358 -16 6 C-16 5.67 -16 5.34 -16 5 C-10.72 5 -5.44 5 0 5 C0 3.35 0 1.7 0 0 Z " fill="#151515" transform="translate(235,278)"/>
<path d="M0 0 C4.29 0 8.58 0 13 0 C11.35171839 3.29656322 8.33005093 3.75828609 5 5 C3.68 5 2.36 5 1 5 C0.67 3.35 0.34 1.7 0 0 Z " fill="#EAEAEA" transform="translate(347,274)"/>
<path d="M0 0 C6.46153846 0.46153846 6.46153846 0.46153846 9 3 C7.39743892 3.50512244 5.79288208 4.00391627 4.1875 4.5 C2.84751953 4.91765625 2.84751953 4.91765625 1.48046875 5.34375 C-1 6 -1 6 -4 6 C-2.84826645 3.53199953 -1.95216435 1.95216435 0 0 Z " fill="#DEDEDE" transform="translate(269,283)"/>
<path d="M0 0 C0.33 0 0.66 0 1 0 C1 3.96 1 7.92 1 12 C0.01 10.68 -0.98 9.36 -2 8 C-4.97 12.95 -4.97 12.95 -8 18 C-9 15 -9 15 -8.22265625 12.95703125 C-7.83980469 12.24933594 -7.45695312 11.54164063 -7.0625 10.8125 C-6.68222656 10.09707031 -6.30195313 9.38164062 -5.91015625 8.64453125 C-5.45962891 7.83048828 -5.45962891 7.83048828 -5 7 C-4.34 7 -3.68 7 -3 7 C-2.690625 6.030625 -2.38125 5.06125 -2.0625 4.0625 C-1 1 -1 1 0 0 Z " fill="#939393" transform="translate(361,240)"/>
<path d="M0 0 C1.485 0.99 1.485 0.99 3 2 C3 2.66 3 3.32 3 4 C7.455 3.505 7.455 3.505 12 3 C10 5 10 5 7 6 C8.05710093 8.27683278 9.08981993 10.10977992 10.6875 12.0625 C11.120625 12.701875 11.55375 13.34125 12 14 C11.67 14.99 11.34 15.98 11 17 C9.15895764 14.54735411 7.32852207 12.08699041 5.5 9.625 C4.71302734 8.57699219 4.71302734 8.57699219 3.91015625 7.5078125 C3.41386719 6.8375 2.91757813 6.1671875 2.40625 5.4765625 C1.94541016 4.85861816 1.48457031 4.24067383 1.00976562 3.60400391 C0 2 0 2 0 0 Z " fill="#2E2E2E" transform="translate(210,201)"/>
<path d="M0 0 C2.9375 0.375 2.9375 0.375 6 1 C6.33 1.66 6.66 2.32 7 3 C6.67 3.99 6.34 4.98 6 6 C3.69 6 1.38 6 -1 6 C-0.67 4.02 -0.34 2.04 0 0 Z " fill="#C3C3C3" transform="translate(405,179)"/>
<path d="M0 0 C1 2 1 2 1.25 4.75 C1.99801816 7.99141202 2.5011446 8.83483145 4.625 11.1875 C5.800625 12.5796875 5.800625 12.5796875 7 14 C6.67 14.99 6.34 15.98 6 17 C2.7 12.38 -0.6 7.76 -4 3 C-3 1 -3 1 0 0 Z " fill="#1D1D1D" transform="translate(242,238)"/>
<path d="M0 0 C0.66 0 1.32 0 2 0 C2 1.32 2 2.64 2 4 C2.99 4.33 3.98 4.66 5 5 C5 5.66 5 6.32 5 7 C4.01 7 3.02 7 2 7 C2 8.32 2 9.64 2 11 C1.34 11 0.68 11 0 11 C0 7.37 0 3.74 0 0 Z " fill="#C8C8C8" transform="translate(112,305)"/>
<path d="M0 0 C2.64 0 5.28 0 8 0 C8.33 1.32 8.66 2.64 9 4 C7.1875 4.625 7.1875 4.625 5 5 C4.01 4.34 3.02 3.68 2 3 C1.01 3.495 1.01 3.495 0 4 C0 2.68 0 1.36 0 0 Z " fill="#737373" transform="translate(124,296)"/>
<path d="M0 0 C1.98 0 3.96 0 6 0 C6.33 0.99 6.66 1.98 7 3 C7.66 2.01 8.32 1.02 9 0 C8.67 1.65 8.34 3.3 8 5 C7.38125 4.814375 6.7625 4.62875 6.125 4.4375 C3.95839822 3.76313824 3.95839822 3.76313824 2 5 C2 4.34 2 3.68 2 3 C1.34 3 0.68 3 0 3 C0 2.01 0 1.02 0 0 Z " fill="#6D6D6D" transform="translate(114,296)"/>
<path d="M0 0 C0.33 0 0.66 0 1 0 C1.39259552 4.44941586 0.3498442 7.22346468 -2 11 C-4.1875 12.375 -4.1875 12.375 -6 13 C-4.58707905 8.1725201 -2.57025846 4.2837641 0 0 Z " fill="#D4D4D4" transform="translate(344,279)"/>
<path d="M0 0 C-0.33 0.66 -0.66 1.32 -1 2 C-3.28515625 2.6328125 -3.28515625 2.6328125 -6.0625 3.125 C-6.98160156 3.29257812 -7.90070313 3.46015625 -8.84765625 3.6328125 C-9.91306641 3.81457031 -9.91306641 3.81457031 -11 4 C-10.67 3.01 -10.34 2.02 -10 1 C-8.22265625 0.234375 -8.22265625 0.234375 -6.0625 -0.25 C-5.35222656 -0.42015625 -4.64195312 -0.5903125 -3.91015625 -0.765625 C-2 -1 -2 -1 0 0 Z " fill="#050505" transform="translate(162,274)"/>
<path d="M0 0 C2.31 0.33 4.62 0.66 7 1 C6.67 2.32 6.34 3.64 6 5 C4.02 4.34 2.04 3.68 0 3 C0 2.01 0 1.02 0 0 Z " fill="#D9D9D9" transform="translate(427,202)"/>
<path d="M0 0 C0.66 0 1.32 0 2 0 C3.38232443 1.62626404 4.71937515 3.2925002 6 5 C3.36 5 0.72 5 -2 5 C-1.34 3.35 -0.68 1.7 0 0 Z " fill="#EDEDED" transform="translate(348,283)"/>
<path d="M0 0 C3.875 0.875 3.875 0.875 5 2 C5.04080783 3.99958364 5.04254356 6.00045254 5 8 C2.20127563 5.47211993 0.54226981 3.79588866 0 0 Z " fill="#D6D6D6" transform="translate(369,176)"/>
<path d="M0 0 C3.96 0 7.92 0 12 0 C11.67 0.66 11.34 1.32 11 2 C8.67843403 2.40729228 6.3431213 2.74438677 4 3 C4 2.34 4 1.68 4 1 C2.68 0.67 1.36 0.34 0 0 Z " fill="#E4E4E4" transform="translate(273,183)"/>
<path d="M0 0 C2.76223278 2.76223278 2.57856291 5.20706617 3 9 C2.01 9.495 2.01 9.495 1 10 C0.67 8.68 0.34 7.36 0 6 C-0.99 6.495 -0.99 6.495 -2 7 C-1.125 2.25 -1.125 2.25 0 0 Z " fill="#1D1D1D" transform="translate(416,203)"/>
<path d="M0 0 C0 0.99 0 1.98 0 3 C-2.64 3 -5.28 3 -8 3 C-8 2.34 -8 1.68 -8 1 C-2.25 -1.125 -2.25 -1.125 0 0 Z " fill="#C9C9C9" transform="translate(274,289)"/>
<path d="M0 0 C1.65 0.33 3.3 0.66 5 1 C5 1.66 5 2.32 5 3 C3.02 3.99 1.04 4.98 -1 6 C-0.67 4.02 -0.34 2.04 0 0 Z " fill="#D6D6D6" transform="translate(362,171)"/>
<path d="M0 0 C0.28875 0.598125 0.5775 1.19625 0.875 1.8125 C2.04742026 4.19327792 2.04742026 4.19327792 4 7 C1.125 7.125 1.125 7.125 -2 7 C-2.66 6.34 -3.32 5.68 -4 5 C-3.01 4.67 -2.02 4.34 -1 4 C-0.26676204 1.98491642 -0.26676204 1.98491642 0 0 Z " fill="#D2D2D2" transform="translate(123,296)"/>
</svg>
